<?xml version="1.0" encoding="UTF-8" standalone="no"?>
<!DOCTYPE svg PUBLIC "-//W3C//DTD SVG 1.1//EN"
 "http://www.w3.org/Graphics/SVG/1.1/DTD/svg11.dtd">
<!-- Generated by graphviz version 2.38.0 (20140413.2041)
 -->
<!-- Title: %3 Pages: 1 -->
<svg width="977pt" height="1129pt"
 viewBox="0.00 0.00 977.00 1128.72" xmlns="http://www.w3.org/2000/svg" xmlns:xlink="http://www.w3.org/1999/xlink">
<g id="graph0" class="graph" transform="scale(1 1) rotate(0) translate(4 1124.72)">
<title>%3</title>
<polygon fill="white" stroke="none" points="-4,4 -4,-1124.72 973,-1124.72 973,4 -4,4"/>
<!-- ext -->
<g id="node1" class="node"><title>ext</title>
<polygon fill="lightgray" stroke="black" points="293.5,-748.841 266.5,-748.841 266.5,-730.841 293.5,-730.841 293.5,-748.841"/>
<text text-anchor="middle" x="280" y="-737.641" font-family="Times,serif" font-size="9.00">ext</text>
</g>
<!-- uy -->
<g id="node6" class="node"><title>uy</title>
<ellipse fill="lightblue" stroke="black" cx="338" cy="-557.533" rx="18.2703" ry="18.2703"/>
<text text-anchor="middle" x="338" y="-555.333" font-family="Times,serif" font-size="9.00">uy</text>
</g>
<!-- ext&#45;&gt;uy -->
<g id="edge44" class="edge"><title>ext&#45;&gt;uy</title>
<path fill="none" stroke="green" stroke-width="0.209391" d="M280.22,-730.563C280.977,-710.933 284.319,-660.27 299,-621.11 304.319,-606.922 313.056,-592.477 320.914,-581.046"/>
<polygon fill="green" stroke="green" stroke-width="0.209391" points="323.989,-582.76 326.945,-572.586 318.29,-578.697 323.989,-582.76"/>
</g>
<!-- 3310 -->
<g id="node38" class="node"><title>3310</title>
<ellipse fill="white" stroke="black" cx="467" cy="-648.687" rx="25" ry="25"/>
<text text-anchor="middle" x="467" y="-646.487" font-family="Times,serif" font-size="9.00">3310</text>
</g>
<!-- ext&#45;&gt;3310 -->
<g id="edge67" class="edge"><title>ext&#45;&gt;3310</title>
<path fill="none" stroke="red" stroke-width="0.140158" stroke-dasharray="1,5" d="M286.576,-730.779C291.807,-724.861 299.619,-717.05 308,-712.264 358.577,-683.385 382.291,-703.063 434,-676.264 436.286,-675.079 438.564,-673.722 440.793,-672.261"/>
<polygon fill="red" stroke="red" stroke-width="0.140158" points="443.024,-674.966 449.063,-666.26 438.913,-669.3 443.024,-674.966"/>
</g>
<!-- eyt -->
<g id="node2" class="node"><title>eyt</title>
<polygon fill="lightgray" stroke="black" points="773.5,-657.687 746.5,-657.687 746.5,-639.687 773.5,-639.687 773.5,-657.687"/>
<text text-anchor="middle" x="760" y="-646.487" font-family="Times,serif" font-size="9.00">eyt</text>
</g>
<!-- 11426 -->
<g id="node17" class="node"><title>11426</title>
<ellipse fill="white" stroke="black" cx="725" cy="-557.533" rx="27.6545" ry="27.6545"/>
<text text-anchor="middle" x="725" y="-555.333" font-family="Times,serif" font-size="9.00">11426</text>
</g>
<!-- eyt&#45;&gt;11426 -->
<g id="edge60" class="edge"><title>eyt&#45;&gt;11426</title>
<path fill="none" stroke="green" stroke-width="0.100959" d="M756.77,-639.459C752.639,-628.937 745.226,-610.054 738.599,-593.174"/>
<polygon fill="green" stroke="green" stroke-width="0.100959" points="741.732,-591.574 734.819,-583.545 735.216,-594.132 741.732,-591.574"/>
</g>
<!-- 11081 -->
<g id="node28" class="node"><title>11081</title>
<ellipse fill="white" stroke="black" cx="750" cy="-466.378" rx="27.6545" ry="27.6545"/>
<text text-anchor="middle" x="750" y="-464.178" font-family="Times,serif" font-size="9.00">11081</text>
</g>
<!-- eyt&#45;&gt;11081 -->
<g id="edge35" class="edge"><title>eyt&#45;&gt;11081</title>
<path fill="none" stroke="red" stroke-width="0.117266" stroke-dasharray="1,5" d="M760.751,-639.669C762.403,-620.6 765.906,-571.064 762,-529.955 761.173,-521.249 759.712,-511.951 758.088,-503.258"/>
<polygon fill="red" stroke="red" stroke-width="0.117266" points="761.512,-502.532 756.134,-493.403 754.645,-503.893 761.512,-502.532"/>
</g>
<!-- 2812 -->
<g id="node43" class="node"><title>2812</title>
<ellipse fill="white" stroke="black" cx="804" cy="-378.052" rx="25" ry="25"/>
<text text-anchor="middle" x="804" y="-375.852" font-family="Times,serif" font-size="9.00">2812</text>
</g>
<!-- eyt&#45;&gt;2812 -->
<g id="edge65" class="edge"><title>eyt&#45;&gt;2812</title>
<path fill="none" stroke="green" stroke-width="0.137731" stroke-dasharray="1,5" d="M762.552,-639.669C766.231,-627.844 773.018,-604.979 777,-585.11 789.032,-525.067 796.978,-454.066 800.967,-413.029"/>
<polygon fill="green" stroke="green" stroke-width="0.137731" points="804.456,-413.307 801.919,-403.021 797.488,-412.645 804.456,-413.307"/>
</g>
<!-- sf -->
<g id="node3" class="node"><title>sf</title>
<polygon fill="lightgray" stroke="black" points="661.5,-748.841 638.5,-748.841 638.5,-730.841 661.5,-730.841 661.5,-748.841"/>
<text text-anchor="middle" x="650" y="-737.641" font-family="Times,serif" font-size="9.00">sf</text>
</g>
<!-- ux -->
<g id="node5" class="node"><title>ux</title>
<ellipse fill="lightblue" stroke="black" cx="893" cy="-113.075" rx="18.2703" ry="18.2703"/>
<text text-anchor="middle" x="893" y="-110.875" font-family="Times,serif" font-size="9.00">ux</text>
</g>
<!-- sf&#45;&gt;ux -->
<g id="edge73" class="edge"><title>sf&#45;&gt;ux</title>
<path fill="none" stroke="red" stroke-width="0.588304" stroke-dasharray="1,5" d="M661.716,-739.059C698.671,-739.119 814.282,-734.411 881,-676.264 923.856,-638.913 931,-615.381 931,-558.533 931,-558.533 931,-558.533 931,-288.726 931,-235.014 913.627,-174.09 902.375,-140.263"/>
<polygon fill="red" stroke="red" stroke-width="0.588304" points="905.645,-139.008 899.105,-130.673 899.02,-141.267 905.645,-139.008"/>
</g>
<!-- sf&#45;&gt;uy -->
<g id="edge46" class="edge"><title>sf&#45;&gt;uy</title>
<path fill="none" stroke="red" stroke-width="1.32853" stroke-dasharray="1,5" d="M638.253,-733.704C617.657,-724.328 574.34,-702.925 544,-676.264 520.651,-655.747 525.976,-639.612 501,-621.11 459.17,-590.123 400.109,-572.549 365.759,-564.337"/>
<polygon fill="red" stroke="red" stroke-width="1.32853" points="366.468,-560.909 355.939,-562.085 364.903,-567.732 366.468,-560.909"/>
</g>
<!-- 11138 -->
<g id="node8" class="node"><title>11138</title>
<ellipse fill="white" stroke="black" cx="819" cy="-648.687" rx="27.6545" ry="27.6545"/>
<text text-anchor="middle" x="819" y="-646.487" font-family="Times,serif" font-size="9.00">11138</text>
</g>
<!-- sf&#45;&gt;11138 -->
<g id="edge29" class="edge"><title>sf&#45;&gt;11138</title>
<path fill="none" stroke="red" stroke-width="0.348477" d="M661.656,-734.154C685.11,-724.544 739.4,-701.384 782,-676.264 784.265,-674.928 786.566,-673.491 788.855,-672.002"/>
<polygon fill="red" stroke="red" stroke-width="0.348477" points="791.229,-674.62 797.526,-666.099 787.29,-668.833 791.229,-674.62"/>
</g>
<!-- 11023 -->
<g id="node15" class="node"><title>11023</title>
<ellipse fill="white" stroke="black" cx="875" cy="-557.533" rx="27.6545" ry="27.6545"/>
<text text-anchor="middle" x="875" y="-555.333" font-family="Times,serif" font-size="9.00">11023</text>
</g>
<!-- sf&#45;&gt;11023 -->
<g id="edge33" class="edge"><title>sf&#45;&gt;11023</title>
<path fill="none" stroke="red" stroke-width="0.846258" stroke-dasharray="1,5" d="M661.545,-739.22C696.808,-739.694 803.873,-735.945 856,-676.264 875.153,-654.336 878.997,-620.973 878.572,-595.356"/>
<polygon fill="red" stroke="red" stroke-width="0.846258" points="882.065,-595.115 878.182,-585.258 875.07,-595.386 882.065,-595.115"/>
</g>
<!-- 6753 -->
<g id="node33" class="node"><title>6753</title>
<ellipse fill="white" stroke="black" cx="458" cy="-378.052" rx="25" ry="25"/>
<text text-anchor="middle" x="458" y="-375.852" font-family="Times,serif" font-size="9.00">6753</text>
</g>
<!-- sf&#45;&gt;6753 -->
<g id="edge23" class="edge"><title>sf&#45;&gt;6753</title>
<path fill="none" stroke="red" stroke-width="0.331744" d="M645.629,-730.651C622.665,-687.618 515.462,-486.731 474.223,-409.453"/>
<polygon fill="red" stroke="red" stroke-width="0.331744" points="477.102,-407.413 469.306,-400.238 470.926,-410.709 477.102,-407.413"/>
</g>
<!-- 2797 -->
<g id="node36" class="node"><title>2797</title>
<ellipse fill="white" stroke="black" cx="617" cy="-201.401" rx="25" ry="25"/>
<text text-anchor="middle" x="617" y="-199.201" font-family="Times,serif" font-size="9.00">2797</text>
</g>
<!-- sf&#45;&gt;2797 -->
<g id="edge75" class="edge"><title>sf&#45;&gt;2797</title>
<path fill="none" stroke="green" stroke-width="0.407386" stroke-dasharray="1,5" d="M649.482,-730.415C645.978,-673.462 625.701,-343.847 619.086,-236.315"/>
<polygon fill="green" stroke="green" stroke-width="0.407386" points="622.58,-236.096 618.472,-226.33 615.593,-236.526 622.58,-236.096"/>
</g>
<!-- 9203 -->
<g id="node41" class="node"><title>9203</title>
<ellipse fill="white" stroke="black" cx="670" cy="-378.052" rx="25" ry="25"/>
<text text-anchor="middle" x="670" y="-375.852" font-family="Times,serif" font-size="9.00">9203</text>
</g>
<!-- sf&#45;&gt;9203 -->
<g id="edge41" class="edge"><title>sf&#45;&gt;9203</title>
<path fill="none" stroke="red" stroke-width="0.399208" d="M650.455,-730.651C652.812,-688.256 663.685,-492.655 668.114,-412.972"/>
<polygon fill="red" stroke="red" stroke-width="0.399208" points="671.61,-413.144 668.671,-402.965 664.621,-412.755 671.61,-413.144"/>
</g>
<!-- 5754 -->
<g id="node42" class="node"><title>5754</title>
<ellipse fill="white" stroke="black" cx="333" cy="-648.687" rx="25" ry="25"/>
<text text-anchor="middle" x="333" y="-646.487" font-family="Times,serif" font-size="9.00">5754</text>
</g>
<!-- sf&#45;&gt;5754 -->
<g id="edge72" class="edge"><title>sf&#45;&gt;5754</title>
<path fill="none" stroke="red" stroke-width="0.426875" d="M638.394,-736.439C586.624,-725.704 378.745,-682.38 366,-676.264 363.621,-675.122 361.26,-673.779 358.96,-672.312"/>
<polygon fill="red" stroke="red" stroke-width="0.426875" points="360.638,-669.207 350.475,-666.213 356.552,-674.892 360.638,-669.207"/>
</g>
<!-- sl -->
<g id="node4" class="node"><title>sl</title>
<polygon fill="lightgray" stroke="black" points="501.5,-1104.97 478.5,-1104.97 478.5,-1086.97 501.5,-1086.97 501.5,-1104.97"/>
<text text-anchor="middle" x="490" y="-1093.77" font-family="Times,serif" font-size="9.00">sl</text>
</g>
<!-- sl&#45;&gt;ux -->
<g id="edge19" class="edge"><title>sl&#45;&gt;ux</title>
<path fill="none" stroke="green" stroke-width="0.254362" stroke-dasharray="1,5" d="M495.06,-1086.92C498.661,-1081.78 503.926,-1075.33 510,-1071.22 598.964,-1011.11 969,-1027.69 969,-920.321 969,-920.321 969,-920.321 969,-288.726 969,-229.785 932.157,-168.254 909.776,-136.312"/>
<polygon fill="green" stroke="green" stroke-width="0.254362" points="912.565,-134.196 903.889,-128.114 906.879,-138.279 912.565,-134.196"/>
</g>
<!-- 49551 -->
<g id="node14" class="node"><title>49551</title>
<ellipse fill="white" stroke="black" cx="490" cy="-1007.65" rx="27.6545" ry="27.6545"/>
<text text-anchor="middle" x="490" y="-1005.45" font-family="Times,serif" font-size="9.00">49551</text>
</g>
<!-- sl&#45;&gt;49551 -->
<g id="edge47" class="edge"><title>sl&#45;&gt;49551</title>
<path fill="none" stroke="green" stroke-width="0.130371" d="M490,-1086.7C490,-1077.16 490,-1060.85 490,-1045.6"/>
<polygon fill="green" stroke="green" stroke-width="0.130371" points="493.5,-1045.3 490,-1035.3 486.5,-1045.3 493.5,-1045.3"/>
</g>
<!-- 11242 -->
<g id="node34" class="node"><title>11242</title>
<ellipse fill="white" stroke="black" cx="563" cy="-1007.65" rx="27.6545" ry="27.6545"/>
<text text-anchor="middle" x="563" y="-1005.45" font-family="Times,serif" font-size="9.00">11242</text>
</g>
<!-- sl&#45;&gt;11242 -->
<g id="edge7" class="edge"><title>sl&#45;&gt;11242</title>
<path fill="none" stroke="green" stroke-width="0.558482" stroke-dasharray="1,5" d="M497.029,-1086.62C500.86,-1082.06 505.687,-1076.33 510,-1071.22 519.443,-1060.04 529.848,-1047.75 538.92,-1037.04"/>
<polygon fill="green" stroke="green" stroke-width="0.558482" points="541.765,-1039.1 545.56,-1029.21 536.424,-1034.58 541.765,-1039.1"/>
</g>
<!-- sl&#45;&gt;3310 -->
<g id="edge15" class="edge"><title>sl&#45;&gt;3310</title>
<path fill="none" stroke="green" stroke-width="0.202128" d="M478.461,-1094.07C450.08,-1091.17 376.602,-1079.55 341,-1035.22 308.588,-994.867 322,-972.083 322,-920.321 322,-920.321 322,-920.321 322,-829.996 322,-792.179 400.434,-712.456 441.929,-672.924"/>
<polygon fill="green" stroke="green" stroke-width="0.202128" points="444.359,-675.444 449.22,-666.03 439.549,-670.357 444.359,-675.444"/>
</g>
<!-- 5106 -->
<g id="node40" class="node"><title>5106</title>
<ellipse fill="white" stroke="black" cx="428" cy="-919.321" rx="25" ry="25"/>
<text text-anchor="middle" x="428" y="-917.121" font-family="Times,serif" font-size="9.00">5106</text>
</g>
<!-- sl&#45;&gt;5106 -->
<g id="edge38" class="edge"><title>sl&#45;&gt;5106</title>
<path fill="none" stroke="red" stroke-width="0.162728" stroke-dasharray="1,5" d="M483.777,-1086.95C475.521,-1075.91 461.052,-1055.13 453,-1035.22 442.445,-1009.13 436.008,-977.811 432.314,-954.467"/>
<polygon fill="red" stroke="red" stroke-width="0.162728" points="435.742,-953.723 430.806,-944.349 428.819,-954.756 435.742,-953.723"/>
</g>
<!-- 2129 -->
<g id="node31" class="node"><title>2129</title>
<ellipse fill="white" stroke="black" cx="596" cy="-24.7487" rx="25" ry="25"/>
<text text-anchor="middle" x="596" y="-22.5487" font-family="Times,serif" font-size="9.00">2129</text>
</g>
<!-- ux&#45;&gt;2129 -->
<g id="edge64" class="edge"><title>ux&#45;&gt;2129</title>
<path fill="none" stroke="red" stroke-width="0.464737" d="M875.311,-106.933C827.047,-92.9046 692.495,-53.796 629.426,-35.4643"/>
<polygon fill="red" stroke="red" stroke-width="0.464737" points="630.164,-32.034 619.584,-32.6038 628.21,-38.7559 630.164,-32.034"/>
</g>
<!-- uy&#45;&gt;uy -->
<g id="edge63" class="edge"><title>uy&#45;&gt;uy</title>
<path fill="none" stroke="red" stroke-width="0.549935" stroke-dasharray="1,5" d="M350.679,-571.404C362.125,-578.153 374.385,-573.529 374.385,-557.533 374.385,-546.035 368.051,-540.413 360.239,-540.666"/>
<polygon fill="red" stroke="red" stroke-width="0.549935" points="359.175,-537.331 350.679,-543.661 361.268,-544.011 359.175,-537.331"/>
</g>
<!-- 5516 -->
<g id="node11" class="node"><title>5516</title>
<ellipse fill="white" stroke="black" cx="391" cy="-466.378" rx="25" ry="25"/>
<text text-anchor="middle" x="391" y="-464.178" font-family="Times,serif" font-size="9.00">5516</text>
</g>
<!-- uy&#45;&gt;5516 -->
<g id="edge57" class="edge"><title>uy&#45;&gt;5516</title>
<path fill="none" stroke="red" stroke-width="0.109458" d="M342.761,-539.343C348.983,-526.52 359.278,-508.762 368.874,-494.095"/>
<polygon fill="red" stroke="red" stroke-width="0.109458" points="372.026,-495.681 374.717,-485.433 366.223,-491.766 372.026,-495.681"/>
</g>
<!-- 3415 -->
<g id="node32" class="node"><title>3415</title>
<ellipse fill="white" stroke="black" cx="188" cy="-378.052" rx="25" ry="25"/>
<text text-anchor="middle" x="188" y="-375.852" font-family="Times,serif" font-size="9.00">3415</text>
</g>
<!-- uy&#45;&gt;3415 -->
<g id="edge6" class="edge"><title>uy&#45;&gt;3415</title>
<path fill="none" stroke="red" stroke-width="0.299312" stroke-dasharray="1,5" d="M319.825,-553.364C290.952,-547.311 235.015,-531.23 207,-493.955 189.674,-470.903 185.756,-437.872 185.684,-413.136"/>
<polygon fill="red" stroke="red" stroke-width="0.299312" points="189.184,-413.156 185.861,-403.096 182.185,-413.033 189.184,-413.156"/>
</g>
<!-- uy&#45;&gt;2797 -->
<g id="edge59" class="edge"><title>uy&#45;&gt;2797</title>
<path fill="none" stroke="red" stroke-width="0.233523" d="M334.897,-539.212C329.194,-502.089 320.719,-413.36 357,-353.304 383.439,-309.538 521.722,-244.365 585.15,-216.194"/>
<polygon fill="red" stroke="red" stroke-width="0.233523" points="586.565,-219.395 594.301,-212.156 583.739,-212.991 586.565,-219.395"/>
</g>
<!-- 17389 -->
<g id="node37" class="node"><title>17389</title>
<ellipse fill="white" stroke="black" cx="244" cy="-466.378" rx="27.6545" ry="27.6545"/>
<text text-anchor="middle" x="244" y="-464.178" font-family="Times,serif" font-size="9.00">17389</text>
</g>
<!-- uy&#45;&gt;17389 -->
<g id="edge69" class="edge"><title>uy&#45;&gt;17389</title>
<path fill="none" stroke="red" stroke-width="0.33943" d="M324.93,-544.136C311.07,-530.99 288.78,-509.85 271.099,-493.08"/>
<polygon fill="red" stroke="red" stroke-width="0.33943" points="273.506,-490.539 263.842,-486.197 268.689,-495.618 273.506,-490.539"/>
</g>
<!-- 6016 -->
<g id="node7" class="node"><title>6016</title>
<ellipse fill="white" stroke="black" cx="134" cy="-24.7487" rx="25" ry="25"/>
<text text-anchor="middle" x="134" y="-22.5487" font-family="Times,serif" font-size="9.00">6016</text>
</g>
<!-- 11138&#45;&gt;11023 -->
<g id="edge70" class="edge"><title>11138&#45;&gt;11023</title>
<path fill="none" stroke="red" stroke-width="0.867577" d="M833.421,-624.727C840.019,-614.224 847.943,-601.608 855.096,-590.22"/>
<polygon fill="red" stroke="red" stroke-width="0.867577" points="858.272,-591.744 860.627,-581.414 852.345,-588.021 858.272,-591.744"/>
</g>
<!-- 12164 -->
<g id="node9" class="node"><title>12164</title>
<ellipse fill="white" stroke="black" cx="484" cy="-739.841" rx="27.6545" ry="27.6545"/>
<text text-anchor="middle" x="484" y="-737.641" font-family="Times,serif" font-size="9.00">12164</text>
</g>
<!-- 12164&#45;&gt;3310 -->
<g id="edge12" class="edge"><title>12164&#45;&gt;3310</title>
<path fill="none" stroke="red" stroke-width="0.443069" d="M478.991,-712.574C477.218,-703.273 475.199,-692.683 473.33,-682.881"/>
<polygon fill="red" stroke="red" stroke-width="0.443069" points="476.764,-682.206 471.453,-673.038 469.888,-683.517 476.764,-682.206"/>
</g>
<!-- 42247 -->
<g id="node10" class="node"><title>42247</title>
<ellipse fill="white" stroke="black" cx="711" cy="-289.726" rx="27.6545" ry="27.6545"/>
<text text-anchor="middle" x="711" y="-287.526" font-family="Times,serif" font-size="9.00">42247</text>
</g>
<!-- 42247&#45;&gt;2797 -->
<g id="edge8" class="edge"><title>42247&#45;&gt;2797</title>
<path fill="none" stroke="green" stroke-width="0.436324" d="M691.065,-270.419C676.93,-257.438 657.841,-239.907 642.582,-225.894"/>
<polygon fill="green" stroke="green" stroke-width="0.436324" points="644.732,-223.116 634.999,-218.93 639.997,-228.272 644.732,-223.116"/>
</g>
<!-- 5516&#45;&gt;uy -->
<g id="edge3" class="edge"><title>5516&#45;&gt;uy</title>
<path fill="none" stroke="green" stroke-width="0.230939" d="M383.447,-490.13C376.23,-504.089 365.632,-521.838 356.353,-535.474"/>
<polygon fill="green" stroke="green" stroke-width="0.230939" points="353.41,-533.573 350.494,-543.759 359.126,-537.615 353.41,-533.573"/>
</g>
<!-- 5516&#45;&gt;6753 -->
<g id="edge55" class="edge"><title>5516&#45;&gt;6753</title>
<path fill="none" stroke="green" stroke-width="0.332711" d="M405.869,-446.22C414.977,-434.485 426.779,-419.278 436.85,-406.303"/>
<polygon fill="green" stroke="green" stroke-width="0.332711" points="439.806,-408.203 443.172,-398.157 434.276,-403.911 439.806,-408.203"/>
</g>
<!-- 5871 -->
<g id="node39" class="node"><title>5871</title>
<ellipse fill="white" stroke="black" cx="391" cy="-378.052" rx="25" ry="25"/>
<text text-anchor="middle" x="391" y="-375.852" font-family="Times,serif" font-size="9.00">5871</text>
</g>
<!-- 5516&#45;&gt;5871 -->
<g id="edge39" class="edge"><title>5516&#45;&gt;5871</title>
<path fill="none" stroke="red" stroke-width="0.556789" d="M391,-441.332C391,-432.632 391,-422.635 391,-413.232"/>
<polygon fill="red" stroke="red" stroke-width="0.556789" points="394.5,-412.97 391,-402.97 387.5,-412.97 394.5,-412.97"/>
</g>
<!-- 10765 -->
<g id="node12" class="node"><title>10765</title>
<ellipse fill="white" stroke="black" cx="576" cy="-466.378" rx="27.6545" ry="27.6545"/>
<text text-anchor="middle" x="576" y="-464.178" font-family="Times,serif" font-size="9.00">10765</text>
</g>
<!-- 10765&#45;&gt;2797 -->
<g id="edge56" class="edge"><title>10765&#45;&gt;2797</title>
<path fill="none" stroke="red" stroke-width="0.112866" d="M578.709,-438.616C582.848,-399.624 591.491,-324.993 603,-262.149 604.6,-253.412 606.643,-244.028 608.67,-235.346"/>
<polygon fill="red" stroke="red" stroke-width="0.112866" points="612.089,-236.097 611.016,-225.557 605.282,-234.466 612.089,-236.097"/>
</g>
<!-- 16909 -->
<g id="node13" class="node"><title>16909</title>
<ellipse fill="white" stroke="black" cx="225" cy="-830.996" rx="27.6545" ry="27.6545"/>
<text text-anchor="middle" x="225" y="-828.796" font-family="Times,serif" font-size="9.00">16909</text>
</g>
<!-- 8521 -->
<g id="node27" class="node"><title>8521</title>
<ellipse fill="white" stroke="black" cx="224" cy="-739.841" rx="25" ry="25"/>
<text text-anchor="middle" x="224" y="-737.641" font-family="Times,serif" font-size="9.00">8521</text>
</g>
<!-- 16909&#45;&gt;8521 -->
<g id="edge32" class="edge"><title>16909&#45;&gt;8521</title>
<path fill="none" stroke="green" stroke-width="0.432025" d="M224.7,-803.246C224.6,-794.377 224.488,-784.38 224.383,-775.03"/>
<polygon fill="green" stroke="green" stroke-width="0.432025" points="227.881,-774.801 224.269,-764.841 220.882,-774.88 227.881,-774.801"/>
</g>
<!-- 49551&#45;&gt;5106 -->
<g id="edge50" class="edge"><title>49551&#45;&gt;5106</title>
<path fill="none" stroke="green" stroke-width="0.384393" d="M474.355,-984.864C466.388,-973.771 456.61,-960.157 448.092,-948.297"/>
<polygon fill="green" stroke="green" stroke-width="0.384393" points="450.832,-946.112 442.156,-940.032 445.147,-950.196 450.832,-946.112"/>
</g>
<!-- 11023&#45;&gt;2797 -->
<g id="edge21" class="edge"><title>11023&#45;&gt;2797</title>
<path fill="none" stroke="red" stroke-width="0.174108" d="M878.102,-529.981C883.198,-472.775 886.511,-337.021 815,-262.149 771.951,-217.077 696.248,-205.658 651.966,-202.977"/>
<polygon fill="red" stroke="red" stroke-width="0.174108" points="652.114,-199.48 641.955,-202.488 651.772,-206.472 652.114,-199.48"/>
</g>
<!-- 4764 -->
<g id="node16" class="node"><title>4764</title>
<ellipse fill="white" stroke="black" cx="400" cy="-648.687" rx="25" ry="25"/>
<text text-anchor="middle" x="400" y="-646.487" font-family="Times,serif" font-size="9.00">4764</text>
</g>
<!-- 4764&#45;&gt;uy -->
<g id="edge14" class="edge"><title>4764&#45;&gt;uy</title>
<path fill="none" stroke="red" stroke-width="0.153838" stroke-dasharray="1,5" d="M386.24,-627.901C376.668,-614.136 363.88,-595.748 353.876,-581.362"/>
<polygon fill="red" stroke="red" stroke-width="0.153838" points="356.643,-579.211 348.06,-572.999 350.896,-583.208 356.643,-579.211"/>
</g>
<!-- 11426&#45;&gt;11081 -->
<g id="edge5" class="edge"><title>11426&#45;&gt;11081</title>
<path fill="none" stroke="red" stroke-width="0.486239" d="M732.231,-530.745C734.667,-522.059 737.429,-512.208 740.038,-502.905"/>
<polygon fill="red" stroke="red" stroke-width="0.486239" points="743.455,-503.681 742.785,-493.107 736.715,-501.791 743.455,-503.681"/>
</g>
<!-- 19624 -->
<g id="node18" class="node"><title>19624</title>
<ellipse fill="white" stroke="black" cx="134" cy="-113.075" rx="27.6545" ry="27.6545"/>
<text text-anchor="middle" x="134" y="-110.875" font-family="Times,serif" font-size="9.00">19624</text>
</g>
<!-- 19624&#45;&gt;6016 -->
<g id="edge48" class="edge"><title>19624&#45;&gt;6016</title>
<path fill="none" stroke="red" stroke-width="0.592432" d="M134,-85.2338C134,-77.1407 134,-68.1497 134,-59.6599"/>
<polygon fill="red" stroke="red" stroke-width="0.592432" points="137.5,-59.6466 134,-49.6467 130.5,-59.6467 137.5,-59.6466"/>
</g>
<!-- 8620 -->
<g id="node19" class="node"><title>8620</title>
<ellipse fill="white" stroke="black" cx="64" cy="-113.075" rx="25" ry="25"/>
<text text-anchor="middle" x="64" y="-110.875" font-family="Times,serif" font-size="9.00">8620</text>
</g>
<!-- 8620&#45;&gt;6016 -->
<g id="edge24" class="edge"><title>8620&#45;&gt;6016</title>
<path fill="none" stroke="green" stroke-width="0.227747" d="M79.189,-93.3432C88.9123,-81.3522 101.677,-65.6101 112.442,-52.3349"/>
<polygon fill="green" stroke="green" stroke-width="0.227747" points="115.261,-54.4154 118.841,-44.4436 109.824,-50.0065 115.261,-54.4154"/>
</g>
<!-- 5814 -->
<g id="node20" class="node"><title>5814</title>
<ellipse fill="white" stroke="black" cx="781" cy="-289.726" rx="25" ry="25"/>
<text text-anchor="middle" x="781" y="-287.526" font-family="Times,serif" font-size="9.00">5814</text>
</g>
<!-- 5814&#45;&gt;2797 -->
<g id="edge40" class="edge"><title>5814&#45;&gt;2797</title>
<path fill="none" stroke="green" stroke-width="0.168406" d="M762.755,-272.696C758.109,-268.995 753.008,-265.24 748,-262.149 716.172,-242.506 676.799,-225.414 649.573,-214.601"/>
<polygon fill="green" stroke="green" stroke-width="0.168406" points="650.716,-211.29 640.128,-210.908 648.167,-217.81 650.716,-211.29"/>
</g>
<!-- 6840 -->
<g id="node21" class="node"><title>6840</title>
<ellipse fill="white" stroke="black" cx="484" cy="-830.996" rx="25" ry="25"/>
<text text-anchor="middle" x="484" y="-828.796" font-family="Times,serif" font-size="9.00">6840</text>
</g>
<!-- 6840&#45;&gt;12164 -->
<g id="edge17" class="edge"><title>6840&#45;&gt;12164</title>
<path fill="none" stroke="red" stroke-width="0.232447" d="M484,-806.104C484,-797.392 484,-787.325 484,-777.746"/>
<polygon fill="red" stroke="red" stroke-width="0.232447" points="487.5,-777.63 484,-767.63 480.5,-777.63 487.5,-777.63"/>
</g>
<!-- 6840&#45;&gt;3310 -->
<g id="edge28" class="edge"><title>6840&#45;&gt;3310</title>
<path fill="none" stroke="green" stroke-width="0.148999" stroke-dasharray="1,5" d="M498.921,-810.942C507.198,-799.134 516.671,-783.244 521,-767.418 527.467,-743.774 529.543,-735.24 521,-712.264 515.311,-696.964 504.017,-682.906 493.221,-672.007"/>
<polygon fill="green" stroke="green" stroke-width="0.148999" points="495.542,-669.384 485.902,-664.99 490.698,-674.437 495.542,-669.384"/>
</g>
<!-- 11198 -->
<g id="node22" class="node"><title>11198</title>
<ellipse fill="white" stroke="black" cx="378" cy="-1007.65" rx="27.6545" ry="27.6545"/>
<text text-anchor="middle" x="378" y="-1005.45" font-family="Times,serif" font-size="9.00">11198</text>
</g>
<!-- 11198&#45;&gt;3415 -->
<g id="edge9" class="edge"><title>11198&#45;&gt;3415</title>
<path fill="none" stroke="green" stroke-width="0.105059" d="M350.205,-1006.57C262.91,-1004.72 0,-986.338 0,-831.996 0,-831.996 0,-831.996 0,-556.533 0,-472.022 101.693,-415.819 155.494,-391.998"/>
<polygon fill="green" stroke="green" stroke-width="0.105059" points="157.147,-395.097 164.948,-387.928 154.379,-388.668 157.147,-395.097"/>
</g>
<!-- 11198&#45;&gt;5106 -->
<g id="edge34" class="edge"><title>11198&#45;&gt;5106</title>
<path fill="none" stroke="red" stroke-width="0.193505" d="M391.399,-983.514C397.365,-973.213 404.464,-960.957 410.815,-949.992"/>
<polygon fill="red" stroke="red" stroke-width="0.193505" points="413.949,-951.564 415.932,-941.157 407.892,-948.056 413.949,-951.564"/>
</g>
<!-- 5569 -->
<g id="node23" class="node"><title>5569</title>
<ellipse fill="white" stroke="black" cx="160" cy="-201.401" rx="25" ry="25"/>
<text text-anchor="middle" x="160" y="-199.201" font-family="Times,serif" font-size="9.00">5569</text>
</g>
<!-- 5569&#45;&gt;ux -->
<g id="edge16" class="edge"><title>5569&#45;&gt;ux</title>
<path fill="none" stroke="red" stroke-width="0.244488" stroke-dasharray="1,5" d="M184.808,-197.479C295.878,-184.398 747.146,-131.252 864.825,-117.393"/>
<polygon fill="red" stroke="red" stroke-width="0.244488" points="865.329,-120.858 874.851,-116.212 864.51,-113.906 865.329,-120.858"/>
</g>
<!-- 5569&#45;&gt;6016 -->
<g id="edge18" class="edge"><title>5569&#45;&gt;6016</title>
<path fill="none" stroke="red" stroke-width="0.36352" stroke-dasharray="1,5" d="M167.068,-177.495C173.203,-153.976 179.83,-116.529 171,-85.4975 167.727,-73.9971 161.538,-62.5458 155.145,-52.7913"/>
<polygon fill="red" stroke="red" stroke-width="0.36352" points="157.87,-50.5789 149.294,-44.3574 152.119,-54.5689 157.87,-50.5789"/>
</g>
<!-- 5569&#45;&gt;19624 -->
<g id="edge13" class="edge"><title>5569&#45;&gt;19624</title>
<path fill="none" stroke="green" stroke-width="0.321659" d="M153.032,-177.267C150.47,-168.758 147.505,-158.914 144.69,-149.567"/>
<polygon fill="green" stroke="green" stroke-width="0.321659" points="147.955,-148.271 141.719,-139.705 141.252,-150.29 147.955,-148.271"/>
</g>
<!-- 5569&#45;&gt;8620 -->
<g id="edge22" class="edge"><title>5569&#45;&gt;8620</title>
<path fill="none" stroke="green" stroke-width="0.64801" d="M141.943,-184.163C127.193,-170.9 106.163,-151.989 89.6641,-137.153"/>
<polygon fill="green" stroke="green" stroke-width="0.64801" points="91.752,-134.323 81.9759,-130.239 87.0714,-139.528 91.752,-134.323"/>
</g>
<!-- 8258 -->
<g id="node24" class="node"><title>8258</title>
<ellipse fill="white" stroke="black" cx="375" cy="-830.996" rx="25" ry="25"/>
<text text-anchor="middle" x="375" y="-828.796" font-family="Times,serif" font-size="9.00">8258</text>
</g>
<!-- 15042 -->
<g id="node25" class="node"><title>15042</title>
<ellipse fill="white" stroke="black" cx="244" cy="-289.726" rx="27.6545" ry="27.6545"/>
<text text-anchor="middle" x="244" y="-287.526" font-family="Times,serif" font-size="9.00">15042</text>
</g>
<!-- 15042&#45;&gt;5569 -->
<g id="edge11" class="edge"><title>15042&#45;&gt;5569</title>
<path fill="none" stroke="green" stroke-width="0.284925" stroke-dasharray="1,5" d="M224.939,-269.138C212.881,-256.746 197.184,-240.614 184.243,-227.315"/>
<polygon fill="green" stroke="green" stroke-width="0.284925" points="186.473,-224.588 176.991,-219.862 181.456,-229.47 186.473,-224.588"/>
</g>
<!-- 8135 -->
<g id="node26" class="node"><title>8135</title>
<ellipse fill="white" stroke="black" cx="737" cy="-378.052" rx="25" ry="25"/>
<text text-anchor="middle" x="737" y="-375.852" font-family="Times,serif" font-size="9.00">8135</text>
</g>
<!-- 8521&#45;&gt;8620 -->
<g id="edge53" class="edge"><title>8521&#45;&gt;8620</title>
<path fill="none" stroke="red" stroke-width="0.250755" d="M201.193,-729.644C151.525,-707.937 38,-648.481 38,-558.533 38,-558.533 38,-558.533 38,-288.726 38,-239.136 48.3816,-182.48 56.0247,-147.49"/>
<polygon fill="red" stroke="red" stroke-width="0.250755" points="59.5237,-147.881 58.2942,-137.358 52.6929,-146.351 59.5237,-147.881"/>
</g>
<!-- 11081&#45;&gt;8135 -->
<g id="edge37" class="edge"><title>11081&#45;&gt;8135</title>
<path fill="none" stroke="green" stroke-width="0.320534" d="M746.029,-439.009C744.773,-430.669 743.368,-421.339 742.047,-412.569"/>
<polygon fill="green" stroke="green" stroke-width="0.320534" points="745.5,-411.991 740.55,-402.623 738.578,-413.033 745.5,-411.991"/>
</g>
<!-- 11081&#45;&gt;2812 -->
<g id="edge49" class="edge"><title>11081&#45;&gt;2812</title>
<path fill="none" stroke="red" stroke-width="0.772643" d="M764.188,-442.697C770.796,-432.133 778.737,-419.439 785.783,-408.175"/>
<polygon fill="red" stroke="red" stroke-width="0.772643" points="788.862,-409.851 791.198,-399.517 782.928,-406.139 788.862,-409.851"/>
</g>
<!-- 14029 -->
<g id="node29" class="node"><title>14029</title>
<ellipse fill="white" stroke="black" cx="132" cy="-289.726" rx="27.6545" ry="27.6545"/>
<text text-anchor="middle" x="132" y="-287.526" font-family="Times,serif" font-size="9.00">14029</text>
</g>
<!-- 14029&#45;&gt;5569 -->
<g id="edge54" class="edge"><title>14029&#45;&gt;5569</title>
<path fill="none" stroke="red" stroke-width="0.23716" d="M140.249,-263.293C143.116,-254.454 146.373,-244.415 149.403,-235.073"/>
<polygon fill="red" stroke="red" stroke-width="0.23716" points="152.816,-235.893 152.572,-225.301 146.158,-233.733 152.816,-235.893"/>
</g>
<!-- 9166 -->
<g id="node30" class="node"><title>9166</title>
<ellipse fill="white" stroke="black" cx="544" cy="-1095.97" rx="25" ry="25"/>
<text text-anchor="middle" x="544" y="-1093.77" font-family="Times,serif" font-size="9.00">9166</text>
</g>
<!-- 2129&#45;&gt;uy -->
<g id="edge10" class="edge"><title>2129&#45;&gt;uy</title>
<path fill="none" stroke="red" stroke-width="0.275309" d="M571.272,-28.4361C500.132,-37.6679 300,-74.8004 300,-200.401 300,-379.052 300,-379.052 300,-379.052 300,-433.596 317.373,-495.52 328.625,-529.908"/>
<polygon fill="red" stroke="red" stroke-width="0.275309" points="325.397,-531.289 331.895,-539.658 332.033,-529.064 325.397,-531.289"/>
</g>
<!-- 3415&#45;&gt;5569 -->
<g id="edge25" class="edge"><title>3415&#45;&gt;5569</title>
<path fill="none" stroke="green" stroke-width="0.296786" stroke-dasharray="1,5" d="M184.224,-353.498C179.381,-323.29 170.949,-270.695 165.421,-236.214"/>
<polygon fill="green" stroke="green" stroke-width="0.296786" points="168.845,-235.459 163.806,-226.139 161.933,-236.567 168.845,-235.459"/>
</g>
<!-- 3415&#45;&gt;15042 -->
<g id="edge26" class="edge"><title>3415&#45;&gt;15042</title>
<path fill="none" stroke="red" stroke-width="0.200407" d="M201.271,-356.594C208.024,-346.185 216.374,-333.312 223.897,-321.716"/>
<polygon fill="red" stroke="red" stroke-width="0.200407" points="226.942,-323.454 229.448,-313.159 221.069,-319.644 226.942,-323.454"/>
</g>
<!-- 3415&#45;&gt;14029 -->
<g id="edge71" class="edge"><title>3415&#45;&gt;14029</title>
<path fill="none" stroke="green" stroke-width="0.256441" d="M174.729,-356.594C167.976,-346.185 159.626,-333.312 152.103,-321.716"/>
<polygon fill="green" stroke="green" stroke-width="0.256441" points="154.931,-319.644 146.552,-313.159 149.058,-323.454 154.931,-319.644"/>
</g>
<!-- 8938 -->
<g id="node35" class="node"><title>8938</title>
<ellipse fill="white" stroke="black" cx="353" cy="-289.726" rx="25" ry="25"/>
<text text-anchor="middle" x="353" y="-287.526" font-family="Times,serif" font-size="9.00">8938</text>
</g>
<!-- 3415&#45;&gt;8938 -->
<g id="edge68" class="edge"><title>3415&#45;&gt;8938</title>
<path fill="none" stroke="green" stroke-width="0.207889" d="M209.571,-365.767C238.352,-350.709 289.486,-323.956 322.286,-306.796"/>
<polygon fill="green" stroke="green" stroke-width="0.207889" points="324.186,-309.752 331.424,-302.015 320.941,-303.549 324.186,-309.752"/>
</g>
<!-- 11242&#45;&gt;5106 -->
<g id="edge27" class="edge"><title>11242&#45;&gt;5106</title>
<path fill="none" stroke="red" stroke-width="0.279696" d="M541.531,-990.294C536.803,-986.835 531.779,-983.266 527,-980.07 504.383,-964.944 477.965,-949.087 458.11,-937.513"/>
<polygon fill="red" stroke="red" stroke-width="0.279696" points="459.618,-934.342 449.211,-932.356 456.108,-940.398 459.618,-934.342"/>
</g>
<!-- 8938&#45;&gt;2797 -->
<g id="edge43" class="edge"><title>8938&#45;&gt;2797</title>
<path fill="none" stroke="green" stroke-width="0.158584" d="M372.069,-273.839C378.18,-269.598 385.145,-265.284 392,-262.149 456.108,-232.836 537.301,-215.731 582.542,-207.806"/>
<polygon fill="green" stroke="green" stroke-width="0.158584" points="583.165,-211.251 592.435,-206.12 581.989,-204.35 583.165,-211.251"/>
</g>
<!-- 17389&#45;&gt;3415 -->
<g id="edge2" class="edge"><title>17389&#45;&gt;3415</title>
<path fill="none" stroke="red" stroke-width="0.346145" d="M229.287,-442.697C222.383,-432.054 214.076,-419.249 206.729,-407.923"/>
<polygon fill="red" stroke="red" stroke-width="0.346145" points="209.466,-405.712 201.088,-399.227 203.594,-409.521 209.466,-405.712"/>
</g>
<!-- 3310&#45;&gt;uy -->
<g id="edge36" class="edge"><title>3310&#45;&gt;uy</title>
<path fill="none" stroke="red" stroke-width="0.487213" d="M448.407,-632.176C443.771,-628.458 438.763,-624.567 434,-621.11 410.093,-603.758 381.622,-585.482 361.925,-573.192"/>
<polygon fill="red" stroke="red" stroke-width="0.487213" points="363.623,-570.127 353.28,-567.831 359.934,-576.076 363.623,-570.127"/>
</g>
<!-- 3310&#45;&gt;10765 -->
<g id="edge62" class="edge"><title>3310&#45;&gt;10765</title>
<path fill="none" stroke="red" stroke-width="0.275704" d="M479.504,-627.003C498.423,-595.707 534.474,-536.071 556.754,-499.214"/>
<polygon fill="red" stroke="red" stroke-width="0.275704" points="559.925,-500.735 562.103,-490.366 553.935,-497.113 559.925,-500.735"/>
</g>
<!-- 3310&#45;&gt;11426 -->
<g id="edge52" class="edge"><title>3310&#45;&gt;11426</title>
<path fill="none" stroke="green" stroke-width="0.705477" d="M490.351,-639.618C535.681,-623.953 635.845,-589.341 689.473,-570.809"/>
<polygon fill="green" stroke="green" stroke-width="0.705477" points="690.926,-574.01 699.234,-567.436 688.639,-567.394 690.926,-574.01"/>
</g>
<!-- 3310&#45;&gt;5569 -->
<g id="edge61" class="edge"><title>3310&#45;&gt;5569</title>
<path fill="none" stroke="red" stroke-width="0.361108" d="M449.05,-631.137C444.395,-627.452 439.216,-623.834 434,-621.11 280.517,-540.938 76,-640.539 76,-467.378 76,-467.378 76,-467.378 76,-377.052 76,-325.291 70.3811,-307.681 95,-262.149 103.612,-246.222 118.115,-232.272 131.24,-221.866"/>
<polygon fill="red" stroke="red" stroke-width="0.361108" points="133.724,-224.376 139.59,-215.554 129.502,-218.792 133.724,-224.376"/>
</g>
<!-- 3310&#45;&gt;6753 -->
<g id="edge66" class="edge"><title>3310&#45;&gt;6753</title>
<path fill="none" stroke="green" stroke-width="0.115432" d="M466.201,-623.847C464.6,-576.055 460.993,-468.39 459.142,-413.153"/>
<polygon fill="green" stroke="green" stroke-width="0.115432" points="462.63,-412.716 458.797,-402.838 455.634,-412.95 462.63,-412.716"/>
</g>
<!-- 3310&#45;&gt;2797 -->
<g id="edge45" class="edge"><title>3310&#45;&gt;2797</title>
<path fill="none" stroke="red" stroke-width="0.56259" stroke-dasharray="1,5" d="M473.625,-624.61C480.507,-600.826 491.694,-562.703 502,-529.955 539.653,-410.315 546.154,-379.283 591,-262.149 594.632,-252.662 598.916,-242.478 602.947,-233.254"/>
<polygon fill="red" stroke="red" stroke-width="0.56259" points="606.17,-234.619 607.018,-224.058 599.769,-231.785 606.17,-234.619"/>
</g>
<!-- 5106&#45;&gt;16909 -->
<g id="edge20" class="edge"><title>5106&#45;&gt;16909</title>
<path fill="none" stroke="green" stroke-width="0.505602" d="M404.536,-911.01C373.013,-900.852 315.569,-881.149 269,-858.573 264.915,-856.592 260.715,-854.349 256.609,-852.026"/>
<polygon fill="green" stroke="green" stroke-width="0.505602" points="258.243,-848.927 247.847,-846.884 254.7,-854.964 258.243,-848.927"/>
</g>
<!-- 5106&#45;&gt;6840 -->
<g id="edge42" class="edge"><title>5106&#45;&gt;6840</title>
<path fill="none" stroke="red" stroke-width="0.235271" d="M441.271,-897.863C448.455,-886.79 457.446,-872.93 465.325,-860.784"/>
<polygon fill="red" stroke="red" stroke-width="0.235271" points="468.318,-862.601 470.824,-852.307 462.445,-858.791 468.318,-862.601"/>
</g>
<!-- 5106&#45;&gt;8258 -->
<g id="edge58" class="edge"><title>5106&#45;&gt;8258</title>
<path fill="none" stroke="red" stroke-width="0.153078" d="M415.44,-897.863C408.756,-886.977 400.418,-873.397 393.053,-861.4"/>
<polygon fill="red" stroke="red" stroke-width="0.153078" points="395.869,-859.297 387.654,-852.606 389.903,-862.959 395.869,-859.297"/>
</g>
<!-- 5106&#45;&gt;8521 -->
<g id="edge4" class="edge"><title>5106&#45;&gt;8521</title>
<path fill="none" stroke="red" stroke-width="0.34381" stroke-dasharray="1,5" d="M407.181,-905.583C389.049,-894.13 362.388,-876.411 341,-858.573 306.055,-829.428 269.704,-791.443 246.977,-766.613"/>
<polygon fill="red" stroke="red" stroke-width="0.34381" points="249.412,-764.088 240.096,-759.041 244.232,-768.796 249.412,-764.088"/>
</g>
<!-- 5106&#45;&gt;3310 -->
<g id="edge1" class="edge"><title>5106&#45;&gt;3310</title>
<path fill="none" stroke="green" stroke-width="0.150104" stroke-dasharray="1,5" d="M428.527,-894.279C429.752,-855.575 433.79,-777.217 447,-712.264 449.058,-702.144 452.163,-691.354 455.315,-681.635"/>
<polygon fill="green" stroke="green" stroke-width="0.150104" points="458.697,-682.56 458.577,-671.966 452.064,-680.323 458.697,-682.56"/>
</g>
<!-- 9203&#45;&gt;42247 -->
<g id="edge30" class="edge"><title>9203&#45;&gt;42247</title>
<path fill="none" stroke="green" stroke-width="0.322713" d="M680.346,-355.269C684.814,-345.861 690.143,-334.641 695.095,-324.215"/>
<polygon fill="green" stroke="green" stroke-width="0.322713" points="698.372,-325.473 699.501,-314.938 692.049,-322.469 698.372,-325.473"/>
</g>
<!-- 9203&#45;&gt;2797 -->
<g id="edge51" class="edge"><title>9203&#45;&gt;2797</title>
<path fill="none" stroke="green" stroke-width="0.149045" stroke-dasharray="1,5" d="M663.071,-354.22C653.826,-323.755 637.402,-269.63 626.866,-234.912"/>
<polygon fill="green" stroke="green" stroke-width="0.149045" points="630.184,-233.792 623.931,-225.239 623.485,-235.824 630.184,-233.792"/>
</g>
<!-- 5754&#45;&gt;uy -->
<g id="edge31" class="edge"><title>5754&#45;&gt;uy</title>
<path fill="none" stroke="green" stroke-width="0.4332" d="M334.34,-623.795C334.993,-612.146 335.782,-598.076 336.46,-585.987"/>
<polygon fill="green" stroke="green" stroke-width="0.4332" points="339.956,-586.164 337.021,-575.984 332.967,-585.772 339.956,-586.164"/>
</g>
<!-- 2812&#45;&gt;ux -->
<g id="edge74" class="edge"><title>2812&#45;&gt;ux</title>
<path fill="none" stroke="red" stroke-width="0.132042" stroke-dasharray="1,5" d="M811.742,-354.175C828.202,-305.541 866.589,-192.113 884.058,-140.496"/>
<polygon fill="red" stroke="red" stroke-width="0.132042" points="887.466,-141.344 887.357,-130.75 880.836,-139.1 887.466,-141.344"/>
</g>
</g>
</svg>
