<?xml version="1.0" encoding="UTF-8" standalone="no"?>
<!DOCTYPE svg PUBLIC "-//W3C//DTD SVG 1.1//EN"
 "http://www.w3.org/Graphics/SVG/1.1/DTD/svg11.dtd">
<!-- Generated by graphviz version 2.38.0 (20140413.2041)
 -->
<!-- Title: %3 Pages: 1 -->
<svg width="672pt" height="1129pt"
 viewBox="0.00 0.00 671.75 1128.72" xmlns="http://www.w3.org/2000/svg" xmlns:xlink="http://www.w3.org/1999/xlink">
<g id="graph0" class="graph" transform="scale(1 1) rotate(0) translate(4 1124.72)">
<title>%3</title>
<polygon fill="white" stroke="none" points="-4,4 -4,-1124.72 667.749,-1124.72 667.749,4 -4,4"/>
<!-- ext -->
<g id="node1" class="node"><title>ext</title>
<polygon fill="lightgray" stroke="black" points="310.5,-657.687 283.5,-657.687 283.5,-639.687 310.5,-639.687 310.5,-657.687"/>
<text text-anchor="middle" x="297" y="-646.487" font-family="Times,serif" font-size="9.00">ext</text>
</g>
<!-- uy -->
<g id="node6" class="node"><title>uy</title>
<ellipse fill="lightblue" stroke="black" cx="244" cy="-557.533" rx="18.2703" ry="18.2703"/>
<text text-anchor="middle" x="244" y="-555.333" font-family="Times,serif" font-size="9.00">uy</text>
</g>
<!-- ext&#45;&gt;uy -->
<g id="edge30" class="edge"><title>ext&#45;&gt;uy</title>
<path fill="none" stroke="green" stroke-width="0.209391" d="M292.109,-639.459C284.489,-626.642 269.494,-601.417 258.26,-582.52"/>
<polygon fill="green" stroke="green" stroke-width="0.209391" points="261.215,-580.641 253.096,-573.833 255.197,-584.218 261.215,-580.641"/>
</g>
<!-- eyt -->
<g id="node2" class="node"><title>eyt</title>
<polygon fill="lightgray" stroke="black" points="587.5,-657.687 560.5,-657.687 560.5,-639.687 587.5,-639.687 587.5,-657.687"/>
<text text-anchor="middle" x="574" y="-646.487" font-family="Times,serif" font-size="9.00">eyt</text>
</g>
<!-- 11426 -->
<g id="node17" class="node"><title>11426</title>
<ellipse fill="white" stroke="black" cx="574" cy="-557.533" rx="27.6545" ry="27.6545"/>
<text text-anchor="middle" x="574" y="-555.333" font-family="Times,serif" font-size="9.00">11426</text>
</g>
<!-- eyt&#45;&gt;11426 -->
<g id="edge43" class="edge"><title>eyt&#45;&gt;11426</title>
<path fill="none" stroke="green" stroke-width="0.100959" d="M574,-639.459C574,-629.487 574,-612.006 574,-595.837"/>
<polygon fill="green" stroke="green" stroke-width="0.100959" points="577.5,-595.493 574,-585.493 570.5,-595.494 577.5,-595.493"/>
</g>
<!-- sf -->
<g id="node3" class="node"><title>sf</title>
<polygon fill="lightgray" stroke="black" points="170.5,-748.841 147.5,-748.841 147.5,-730.841 170.5,-730.841 170.5,-748.841"/>
<text text-anchor="middle" x="159" y="-737.641" font-family="Times,serif" font-size="9.00">sf</text>
</g>
<!-- 11138 -->
<g id="node8" class="node"><title>11138</title>
<ellipse fill="white" stroke="black" cx="129" cy="-648.687" rx="27.6545" ry="27.6545"/>
<text text-anchor="middle" x="129" y="-646.487" font-family="Times,serif" font-size="9.00">11138</text>
</g>
<!-- sf&#45;&gt;11138 -->
<g id="edge18" class="edge"><title>sf&#45;&gt;11138</title>
<path fill="none" stroke="red" stroke-width="0.348477" d="M156.231,-730.614C152.715,-720.163 146.424,-701.467 140.773,-684.675"/>
<polygon fill="red" stroke="red" stroke-width="0.348477" points="144.053,-683.447 137.547,-675.086 137.419,-685.68 144.053,-683.447"/>
</g>
<!-- 6753 -->
<g id="node33" class="node"><title>6753</title>
<ellipse fill="white" stroke="black" cx="276" cy="-378.052" rx="25" ry="25"/>
<text text-anchor="middle" x="276" y="-375.852" font-family="Times,serif" font-size="9.00">6753</text>
</g>
<!-- sf&#45;&gt;6753 -->
<g id="edge14" class="edge"><title>sf&#45;&gt;6753</title>
<path fill="none" stroke="red" stroke-width="0.331744" d="M159.963,-730.712C165.376,-685.414 192.28,-465.248 207,-438.801 212.265,-429.341 231.567,-412.958 248.422,-399.737"/>
<polygon fill="red" stroke="red" stroke-width="0.331744" points="250.658,-402.432 256.427,-393.545 246.376,-396.895 250.658,-402.432"/>
</g>
<!-- 9203 -->
<g id="node41" class="node"><title>9203</title>
<ellipse fill="white" stroke="black" cx="58" cy="-648.687" rx="25" ry="25"/>
<text text-anchor="middle" x="58" y="-646.487" font-family="Times,serif" font-size="9.00">9203</text>
</g>
<!-- sf&#45;&gt;9203 -->
<g id="edge27" class="edge"><title>sf&#45;&gt;9203</title>
<path fill="none" stroke="red" stroke-width="0.399208" d="M149.679,-730.614C134.804,-717.483 105.181,-691.334 83.6217,-672.304"/>
<polygon fill="red" stroke="red" stroke-width="0.399208" points="85.8992,-669.645 76.0859,-665.652 81.2667,-674.893 85.8992,-669.645"/>
</g>
<!-- 5754 -->
<g id="node42" class="node"><title>5754</title>
<ellipse fill="white" stroke="black" cx="241" cy="-648.687" rx="25" ry="25"/>
<text text-anchor="middle" x="241" y="-646.487" font-family="Times,serif" font-size="9.00">5754</text>
</g>
<!-- sf&#45;&gt;5754 -->
<g id="edge52" class="edge"><title>sf&#45;&gt;5754</title>
<path fill="none" stroke="red" stroke-width="0.426875" d="M166.567,-730.614C178.085,-718.091 200.495,-693.726 217.728,-674.989"/>
<polygon fill="red" stroke="red" stroke-width="0.426875" points="220.557,-677.084 224.75,-667.354 215.405,-672.345 220.557,-677.084"/>
</g>
<!-- sl -->
<g id="node4" class="node"><title>sl</title>
<polygon fill="lightgray" stroke="black" points="441.5,-1104.97 418.5,-1104.97 418.5,-1086.97 441.5,-1086.97 441.5,-1104.97"/>
<text text-anchor="middle" x="430" y="-1093.77" font-family="Times,serif" font-size="9.00">sl</text>
</g>
<!-- 49551 -->
<g id="node14" class="node"><title>49551</title>
<ellipse fill="white" stroke="black" cx="342" cy="-1007.65" rx="27.6545" ry="27.6545"/>
<text text-anchor="middle" x="342" y="-1005.45" font-family="Times,serif" font-size="9.00">49551</text>
</g>
<!-- sl&#45;&gt;49551 -->
<g id="edge31" class="edge"><title>sl&#45;&gt;49551</title>
<path fill="none" stroke="green" stroke-width="0.130371" d="M421.562,-1086.7C409.517,-1074.88 386.851,-1052.65 368.784,-1034.92"/>
<polygon fill="green" stroke="green" stroke-width="0.130371" points="370.956,-1032.15 361.366,-1027.65 366.054,-1037.15 370.956,-1032.15"/>
</g>
<!-- 3310 -->
<g id="node38" class="node"><title>3310</title>
<ellipse fill="white" stroke="black" cx="462" cy="-648.687" rx="25" ry="25"/>
<text text-anchor="middle" x="462" y="-646.487" font-family="Times,serif" font-size="9.00">3310</text>
</g>
<!-- sl&#45;&gt;3310 -->
<g id="edge9" class="edge"><title>sl&#45;&gt;3310</title>
<path fill="none" stroke="green" stroke-width="0.202128" d="M435.505,-1086.61C454.77,-1057.04 518,-957.16 518,-920.321 518,-920.321 518,-920.321 518,-829.996 518,-776.993 517.024,-762.107 499,-712.264 494.718,-700.422 488.153,-688.305 481.736,-677.927"/>
<polygon fill="green" stroke="green" stroke-width="0.202128" points="484.546,-675.825 476.195,-669.304 478.657,-679.609 484.546,-675.825"/>
</g>
<!-- ux -->
<g id="node5" class="node"><title>ux</title>
<ellipse fill="lightblue" stroke="black" cx="353" cy="-739.841" rx="18.2703" ry="18.2703"/>
<text text-anchor="middle" x="353" y="-737.641" font-family="Times,serif" font-size="9.00">ux</text>
</g>
<!-- 2129 -->
<g id="node31" class="node"><title>2129</title>
<ellipse fill="white" stroke="black" cx="353" cy="-648.687" rx="25" ry="25"/>
<text text-anchor="middle" x="353" y="-646.487" font-family="Times,serif" font-size="9.00">2129</text>
</g>
<!-- ux&#45;&gt;2129 -->
<g id="edge46" class="edge"><title>ux&#45;&gt;2129</title>
<path fill="none" stroke="red" stroke-width="0.464737" d="M353,-721.227C353,-710.602 353,-696.703 353,-683.985"/>
<polygon fill="red" stroke="red" stroke-width="0.464737" points="356.5,-683.678 353,-673.678 349.5,-683.678 356.5,-683.678"/>
</g>
<!-- 5516 -->
<g id="node11" class="node"><title>5516</title>
<ellipse fill="white" stroke="black" cx="241" cy="-466.378" rx="25" ry="25"/>
<text text-anchor="middle" x="241" y="-464.178" font-family="Times,serif" font-size="9.00">5516</text>
</g>
<!-- uy&#45;&gt;5516 -->
<g id="edge40" class="edge"><title>uy&#45;&gt;5516</title>
<path fill="none" stroke="red" stroke-width="0.109458" d="M238.024,-539.763C236.434,-528.858 235.558,-514.255 235.566,-501.023"/>
<polygon fill="red" stroke="red" stroke-width="0.109458" points="239.069,-500.867 235.765,-490.801 232.071,-500.731 239.069,-500.867"/>
</g>
<!-- 2797 -->
<g id="node36" class="node"><title>2797</title>
<ellipse fill="white" stroke="black" cx="178" cy="-201.401" rx="25" ry="25"/>
<text text-anchor="middle" x="178" y="-199.201" font-family="Times,serif" font-size="9.00">2797</text>
</g>
<!-- uy&#45;&gt;2797 -->
<g id="edge42" class="edge"><title>uy&#45;&gt;2797</title>
<path fill="none" stroke="red" stroke-width="0.233523" d="M234.011,-541.559C226.019,-529.158 214.885,-510.889 207,-493.955 163.017,-399.501 166.788,-366.212 172,-262.149 172.423,-253.711 173.179,-244.626 174.016,-236.152"/>
<polygon fill="red" stroke="red" stroke-width="0.233523" points="177.497,-236.511 175.059,-226.2 170.535,-235.781 177.497,-236.511"/>
</g>
<!-- 17389 -->
<g id="node37" class="node"><title>17389</title>
<ellipse fill="white" stroke="black" cx="350" cy="-466.378" rx="27.6545" ry="27.6545"/>
<text text-anchor="middle" x="350" y="-464.178" font-family="Times,serif" font-size="9.00">17389</text>
</g>
<!-- uy&#45;&gt;17389 -->
<g id="edge49" class="edge"><title>uy&#45;&gt;17389</title>
<path fill="none" stroke="red" stroke-width="0.33943" d="M257.858,-544.877C273.909,-531.377 300.783,-508.773 321.378,-491.451"/>
<polygon fill="red" stroke="red" stroke-width="0.33943" points="323.808,-493.981 329.208,-484.866 319.302,-488.624 323.808,-493.981"/>
</g>
<!-- 6016 -->
<g id="node7" class="node"><title>6016</title>
<ellipse fill="white" stroke="black" cx="427" cy="-24.7487" rx="25" ry="25"/>
<text text-anchor="middle" x="427" y="-22.5487" font-family="Times,serif" font-size="9.00">6016</text>
</g>
<!-- 11023 -->
<g id="node15" class="node"><title>11023</title>
<ellipse fill="white" stroke="black" cx="94" cy="-466.378" rx="27.6545" ry="27.6545"/>
<text text-anchor="middle" x="94" y="-464.178" font-family="Times,serif" font-size="9.00">11023</text>
</g>
<!-- 11138&#45;&gt;11023 -->
<g id="edge50" class="edge"><title>11138&#45;&gt;11023</title>
<path fill="none" stroke="red" stroke-width="0.867577" d="M123.911,-621.468C117.897,-590.488 107.855,-538.755 101.084,-503.872"/>
<polygon fill="red" stroke="red" stroke-width="0.867577" points="104.437,-502.778 99.0954,-493.628 97.5652,-504.112 104.437,-502.778"/>
</g>
<!-- 12164 -->
<g id="node9" class="node"><title>12164</title>
<ellipse fill="white" stroke="black" cx="462" cy="-739.841" rx="27.6545" ry="27.6545"/>
<text text-anchor="middle" x="462" y="-737.641" font-family="Times,serif" font-size="9.00">12164</text>
</g>
<!-- 12164&#45;&gt;3310 -->
<g id="edge7" class="edge"><title>12164&#45;&gt;3310</title>
<path fill="none" stroke="red" stroke-width="0.443069" d="M462,-712.092C462,-703.223 462,-693.226 462,-683.875"/>
<polygon fill="red" stroke="red" stroke-width="0.443069" points="465.5,-683.687 462,-673.687 458.5,-683.687 465.5,-683.687"/>
</g>
<!-- 42247 -->
<g id="node10" class="node"><title>42247</title>
<ellipse fill="white" stroke="black" cx="57" cy="-557.533" rx="27.6545" ry="27.6545"/>
<text text-anchor="middle" x="57" y="-555.333" font-family="Times,serif" font-size="9.00">42247</text>
</g>
<!-- 42247&#45;&gt;2797 -->
<g id="edge4" class="edge"><title>42247&#45;&gt;2797</title>
<path fill="none" stroke="green" stroke-width="0.436324" d="M54.6395,-529.696C53.0887,-505.713 52.1394,-469.693 57,-438.801 69.8225,-357.306 69.7645,-331.785 114,-262.149 123.494,-247.204 137.599,-233.489 150.153,-222.979"/>
<polygon fill="green" stroke="green" stroke-width="0.436324" points="152.53,-225.558 158.114,-216.554 148.134,-220.11 152.53,-225.558"/>
</g>
<!-- 5516&#45;&gt;uy -->
<g id="edge2" class="edge"><title>5516&#45;&gt;uy</title>
<path fill="none" stroke="green" stroke-width="0.230939" d="M247.775,-490.465C249.081,-502.399 249.662,-517.035 249.353,-529.496"/>
<polygon fill="green" stroke="green" stroke-width="0.230939" points="245.843,-529.603 248.847,-539.763 252.835,-529.948 245.843,-529.603"/>
</g>
<!-- 5516&#45;&gt;6753 -->
<g id="edge38" class="edge"><title>5516&#45;&gt;6753</title>
<path fill="none" stroke="green" stroke-width="0.332711" d="M250.013,-443.147C254.014,-433.279 258.796,-421.485 263.161,-410.72"/>
<polygon fill="green" stroke="green" stroke-width="0.332711" points="266.503,-411.79 267.017,-401.208 260.016,-409.16 266.503,-411.79"/>
</g>
<!-- 5871 -->
<g id="node39" class="node"><title>5871</title>
<ellipse fill="white" stroke="black" cx="209" cy="-378.052" rx="25" ry="25"/>
<text text-anchor="middle" x="209" y="-375.852" font-family="Times,serif" font-size="9.00">5871</text>
</g>
<!-- 5516&#45;&gt;5871 -->
<g id="edge25" class="edge"><title>5516&#45;&gt;5871</title>
<path fill="none" stroke="red" stroke-width="0.556789" d="M232.592,-442.697C229.028,-433.082 224.809,-421.701 220.932,-411.241"/>
<polygon fill="red" stroke="red" stroke-width="0.556789" points="224.109,-409.742 217.351,-401.582 217.546,-412.175 224.109,-409.742"/>
</g>
<!-- 10765 -->
<g id="node12" class="node"><title>10765</title>
<ellipse fill="white" stroke="black" cx="462" cy="-557.533" rx="27.6545" ry="27.6545"/>
<text text-anchor="middle" x="462" y="-555.333" font-family="Times,serif" font-size="9.00">10765</text>
</g>
<!-- 10765&#45;&gt;2797 -->
<g id="edge39" class="edge"><title>10765&#45;&gt;2797</title>
<path fill="none" stroke="red" stroke-width="0.112866" d="M463.179,-529.579C464.152,-472.184 458.026,-337.037 385,-262.149 339.211,-215.193 259.037,-204.53 213.061,-202.473"/>
<polygon fill="red" stroke="red" stroke-width="0.112866" points="213.084,-198.972 202.973,-202.135 212.85,-205.968 213.084,-198.972"/>
</g>
<!-- 16909 -->
<g id="node13" class="node"><title>16909</title>
<ellipse fill="white" stroke="black" cx="342" cy="-830.996" rx="27.6545" ry="27.6545"/>
<text text-anchor="middle" x="342" y="-828.796" font-family="Times,serif" font-size="9.00">16909</text>
</g>
<!-- 8521 -->
<g id="node27" class="node"><title>8521</title>
<ellipse fill="white" stroke="black" cx="42" cy="-201.401" rx="25" ry="25"/>
<text text-anchor="middle" x="42" y="-199.201" font-family="Times,serif" font-size="9.00">8521</text>
</g>
<!-- 16909&#45;&gt;8521 -->
<g id="edge21" class="edge"><title>16909&#45;&gt;8521</title>
<path fill="none" stroke="green" stroke-width="0.432025" d="M321.232,-812.379C316.46,-808.998 311.241,-805.781 306,-803.418 236.385,-772.036 206.997,-800.137 138,-767.418 65.1546,-732.875 0,-730.308 0,-649.687 0,-649.687 0,-649.687 0,-377.052 0,-325.961 17.2007,-268.735 29.5868,-234.15"/>
<polygon fill="green" stroke="green" stroke-width="0.432025" points="32.9329,-235.191 33.0929,-224.597 26.3615,-232.779 32.9329,-235.191"/>
</g>
<!-- 5106 -->
<g id="node40" class="node"><title>5106</title>
<ellipse fill="white" stroke="black" cx="342" cy="-919.321" rx="25" ry="25"/>
<text text-anchor="middle" x="342" y="-917.121" font-family="Times,serif" font-size="9.00">5106</text>
</g>
<!-- 49551&#45;&gt;5106 -->
<g id="edge34" class="edge"><title>49551&#45;&gt;5106</title>
<path fill="none" stroke="green" stroke-width="0.384393" d="M342,-979.807C342,-971.713 342,-962.722 342,-954.233"/>
<polygon fill="green" stroke="green" stroke-width="0.384393" points="345.5,-954.219 342,-944.219 338.5,-954.219 345.5,-954.219"/>
</g>
<!-- 11023&#45;&gt;2797 -->
<g id="edge12" class="edge"><title>11023&#45;&gt;2797</title>
<path fill="none" stroke="red" stroke-width="0.174108" d="M96.0362,-438.681C99.8352,-398.812 110.111,-322.001 136,-262.149 141.061,-250.448 148.626,-238.722 155.946,-228.795"/>
<polygon fill="red" stroke="red" stroke-width="0.174108" points="158.938,-230.645 162.248,-220.58 153.384,-226.384 158.938,-230.645"/>
</g>
<!-- 4764 -->
<g id="node16" class="node"><title>4764</title>
<ellipse fill="white" stroke="black" cx="484" cy="-1095.97" rx="25" ry="25"/>
<text text-anchor="middle" x="484" y="-1093.77" font-family="Times,serif" font-size="9.00">4764</text>
</g>
<!-- 11081 -->
<g id="node28" class="node"><title>11081</title>
<ellipse fill="white" stroke="black" cx="574" cy="-466.378" rx="27.6545" ry="27.6545"/>
<text text-anchor="middle" x="574" y="-464.178" font-family="Times,serif" font-size="9.00">11081</text>
</g>
<!-- 11426&#45;&gt;11081 -->
<g id="edge3" class="edge"><title>11426&#45;&gt;11081</title>
<path fill="none" stroke="red" stroke-width="0.486239" d="M574,-529.783C574,-521.761 574,-512.817 574,-504.262"/>
<polygon fill="red" stroke="red" stroke-width="0.486239" points="577.5,-504.109 574,-494.109 570.5,-504.109 577.5,-504.109"/>
</g>
<!-- 19624 -->
<g id="node18" class="node"><title>19624</title>
<ellipse fill="white" stroke="black" cx="462" cy="-113.075" rx="27.6545" ry="27.6545"/>
<text text-anchor="middle" x="462" y="-110.875" font-family="Times,serif" font-size="9.00">19624</text>
</g>
<!-- 19624&#45;&gt;6016 -->
<g id="edge32" class="edge"><title>19624&#45;&gt;6016</title>
<path fill="none" stroke="red" stroke-width="0.592432" d="M451.877,-87.1056C448.121,-77.8436 443.812,-67.2136 439.846,-57.4318"/>
<polygon fill="red" stroke="red" stroke-width="0.592432" points="443.029,-55.9671 436.028,-48.0149 436.541,-58.5972 443.029,-55.9671"/>
</g>
<!-- 8620 -->
<g id="node19" class="node"><title>8620</title>
<ellipse fill="white" stroke="black" cx="392" cy="-113.075" rx="25" ry="25"/>
<text text-anchor="middle" x="392" y="-110.875" font-family="Times,serif" font-size="9.00">8620</text>
</g>
<!-- 8620&#45;&gt;6016 -->
<g id="edge15" class="edge"><title>8620&#45;&gt;6016</title>
<path fill="none" stroke="green" stroke-width="0.227747" d="M401.013,-89.8436C405.014,-79.9756 409.796,-68.1817 414.161,-57.4167"/>
<polygon fill="green" stroke="green" stroke-width="0.227747" points="417.503,-58.4868 418.017,-47.9045 411.016,-55.8567 417.503,-58.4868"/>
</g>
<!-- 5814 -->
<g id="node20" class="node"><title>5814</title>
<ellipse fill="white" stroke="black" cx="351" cy="-289.726" rx="25" ry="25"/>
<text text-anchor="middle" x="351" y="-287.526" font-family="Times,serif" font-size="9.00">5814</text>
</g>
<!-- 5814&#45;&gt;2797 -->
<g id="edge26" class="edge"><title>5814&#45;&gt;2797</title>
<path fill="none" stroke="green" stroke-width="0.168406" d="M332.808,-272.609C328.16,-268.91 323.045,-265.178 318,-262.149 283.343,-241.342 240.118,-224.068 210.938,-213.534"/>
<polygon fill="green" stroke="green" stroke-width="0.168406" points="211.835,-210.138 201.24,-210.094 209.495,-216.736 211.835,-210.138"/>
</g>
<!-- 6840 -->
<g id="node21" class="node"><title>6840</title>
<ellipse fill="white" stroke="black" cx="461" cy="-830.996" rx="25" ry="25"/>
<text text-anchor="middle" x="461" y="-828.796" font-family="Times,serif" font-size="9.00">6840</text>
</g>
<!-- 6840&#45;&gt;12164 -->
<g id="edge10" class="edge"><title>6840&#45;&gt;12164</title>
<path fill="none" stroke="red" stroke-width="0.232447" d="M461.268,-806.104C461.366,-797.392 461.479,-787.325 461.586,-777.746"/>
<polygon fill="red" stroke="red" stroke-width="0.232447" points="465.087,-777.669 461.7,-767.63 458.087,-777.59 465.087,-777.669"/>
</g>
<!-- 11198 -->
<g id="node22" class="node"><title>11198</title>
<ellipse fill="white" stroke="black" cx="415" cy="-1007.65" rx="27.6545" ry="27.6545"/>
<text text-anchor="middle" x="415" y="-1005.45" font-family="Times,serif" font-size="9.00">11198</text>
</g>
<!-- 3415 -->
<g id="node32" class="node"><title>3415</title>
<ellipse fill="white" stroke="black" cx="350" cy="-378.052" rx="25" ry="25"/>
<text text-anchor="middle" x="350" y="-375.852" font-family="Times,serif" font-size="9.00">3415</text>
</g>
<!-- 11198&#45;&gt;3415 -->
<g id="edge5" class="edge"><title>11198&#45;&gt;3415</title>
<path fill="none" stroke="green" stroke-width="0.105059" d="M412.775,-980.039C410.11,-945.815 406,-884.521 406,-831.996 406,-831.996 406,-831.996 406,-556.533 406,-503.53 405.534,-488.457 387,-438.801 382.852,-427.687 376.517,-416.395 370.255,-406.665"/>
<polygon fill="green" stroke="green" stroke-width="0.105059" points="373.066,-404.574 364.589,-398.218 367.253,-408.473 373.066,-404.574"/>
</g>
<!-- 11198&#45;&gt;5106 -->
<g id="edge22" class="edge"><title>11198&#45;&gt;5106</title>
<path fill="none" stroke="red" stroke-width="0.193505" d="M397.329,-985.75C387.36,-973.962 374.811,-959.121 364.185,-946.556"/>
<polygon fill="red" stroke="red" stroke-width="0.193505" points="366.656,-944.058 357.526,-938.682 361.311,-948.578 366.656,-944.058"/>
</g>
<!-- 5569 -->
<g id="node23" class="node"><title>5569</title>
<ellipse fill="white" stroke="black" cx="462" cy="-201.401" rx="25" ry="25"/>
<text text-anchor="middle" x="462" y="-199.201" font-family="Times,serif" font-size="9.00">5569</text>
</g>
<!-- 5569&#45;&gt;19624 -->
<g id="edge8" class="edge"><title>5569&#45;&gt;19624</title>
<path fill="none" stroke="green" stroke-width="0.321659" d="M462,-176.354C462,-168.48 462,-159.543 462,-150.945"/>
<polygon fill="green" stroke="green" stroke-width="0.321659" points="465.5,-150.722 462,-140.722 458.5,-150.722 465.5,-150.722"/>
</g>
<!-- 5569&#45;&gt;8620 -->
<g id="edge13" class="edge"><title>5569&#45;&gt;8620</title>
<path fill="none" stroke="green" stroke-width="0.64801" d="M446.811,-181.669C437.088,-169.678 424.323,-153.936 413.558,-140.661"/>
<polygon fill="green" stroke="green" stroke-width="0.64801" points="416.176,-138.332 407.159,-132.77 410.739,-142.741 416.176,-138.332"/>
</g>
<!-- 8258 -->
<g id="node24" class="node"><title>8258</title>
<ellipse fill="white" stroke="black" cx="272" cy="-830.996" rx="25" ry="25"/>
<text text-anchor="middle" x="272" y="-828.796" font-family="Times,serif" font-size="9.00">8258</text>
</g>
<!-- 15042 -->
<g id="node25" class="node"><title>15042</title>
<ellipse fill="white" stroke="black" cx="281" cy="-289.726" rx="27.6545" ry="27.6545"/>
<text text-anchor="middle" x="281" y="-287.526" font-family="Times,serif" font-size="9.00">15042</text>
</g>
<!-- 8135 -->
<g id="node26" class="node"><title>8135</title>
<ellipse fill="white" stroke="black" cx="572" cy="-378.052" rx="25" ry="25"/>
<text text-anchor="middle" x="572" y="-375.852" font-family="Times,serif" font-size="9.00">8135</text>
</g>
<!-- 8521&#45;&gt;8620 -->
<g id="edge36" class="edge"><title>8521&#45;&gt;8620</title>
<path fill="none" stroke="red" stroke-width="0.250755" d="M65.7818,-194.535C126.515,-179.555 287.504,-139.848 358.06,-122.446"/>
<polygon fill="red" stroke="red" stroke-width="0.250755" points="359.315,-125.741 368.186,-119.948 357.638,-118.945 359.315,-125.741"/>
</g>
<!-- 11081&#45;&gt;8135 -->
<g id="edge24" class="edge"><title>11081&#45;&gt;8135</title>
<path fill="none" stroke="green" stroke-width="0.320534" d="M573.378,-438.537C573.191,-430.444 572.982,-421.453 572.786,-412.963"/>
<polygon fill="green" stroke="green" stroke-width="0.320534" points="576.284,-412.866 572.554,-402.95 569.286,-413.029 576.284,-412.866"/>
</g>
<!-- 2812 -->
<g id="node43" class="node"><title>2812</title>
<ellipse fill="white" stroke="black" cx="639" cy="-378.052" rx="25" ry="25"/>
<text text-anchor="middle" x="639" y="-375.852" font-family="Times,serif" font-size="9.00">2812</text>
</g>
<!-- 11081&#45;&gt;2812 -->
<g id="edge33" class="edge"><title>11081&#45;&gt;2812</title>
<path fill="none" stroke="red" stroke-width="0.772643" d="M590.402,-443.595C598.876,-432.341 609.303,-418.493 618.323,-406.513"/>
<polygon fill="red" stroke="red" stroke-width="0.772643" points="621.375,-408.278 624.595,-398.184 615.783,-404.067 621.375,-408.278"/>
</g>
<!-- 14029 -->
<g id="node29" class="node"><title>14029</title>
<ellipse fill="white" stroke="black" cx="462" cy="-289.726" rx="27.6545" ry="27.6545"/>
<text text-anchor="middle" x="462" y="-287.526" font-family="Times,serif" font-size="9.00">14029</text>
</g>
<!-- 14029&#45;&gt;5569 -->
<g id="edge37" class="edge"><title>14029&#45;&gt;5569</title>
<path fill="none" stroke="red" stroke-width="0.23716" d="M462,-261.886C462,-253.792 462,-244.802 462,-236.312"/>
<polygon fill="red" stroke="red" stroke-width="0.23716" points="465.5,-236.298 462,-226.298 458.5,-236.299 465.5,-236.298"/>
</g>
<!-- 9166 -->
<g id="node30" class="node"><title>9166</title>
<ellipse fill="white" stroke="black" cx="551" cy="-1095.97" rx="25" ry="25"/>
<text text-anchor="middle" x="551" y="-1093.77" font-family="Times,serif" font-size="9.00">9166</text>
</g>
<!-- 2129&#45;&gt;uy -->
<g id="edge6" class="edge"><title>2129&#45;&gt;uy</title>
<path fill="none" stroke="red" stroke-width="0.275309" d="M334.014,-632.157C315.014,-616.617 285.815,-592.734 265.859,-576.412"/>
<polygon fill="red" stroke="red" stroke-width="0.275309" points="267.886,-573.548 257.93,-569.926 263.454,-578.966 267.886,-573.548"/>
</g>
<!-- 3415&#45;&gt;15042 -->
<g id="edge16" class="edge"><title>3415&#45;&gt;15042</title>
<path fill="none" stroke="red" stroke-width="0.200407" d="M335.028,-358.321C326.054,-347.094 314.452,-332.579 304.301,-319.878"/>
<polygon fill="red" stroke="red" stroke-width="0.200407" points="306.86,-317.474 297.882,-311.848 301.392,-321.844 306.86,-317.474"/>
</g>
<!-- 3415&#45;&gt;14029 -->
<g id="edge51" class="edge"><title>3415&#45;&gt;14029</title>
<path fill="none" stroke="green" stroke-width="0.256441" d="M369.253,-362.212C386.547,-348.883 412.211,-329.102 432.161,-313.725"/>
<polygon fill="green" stroke="green" stroke-width="0.256441" points="434.537,-316.313 440.32,-307.436 430.263,-310.769 434.537,-316.313"/>
</g>
<!-- 8938 -->
<g id="node35" class="node"><title>8938</title>
<ellipse fill="white" stroke="black" cx="206" cy="-289.726" rx="25" ry="25"/>
<text text-anchor="middle" x="206" y="-287.526" font-family="Times,serif" font-size="9.00">8938</text>
</g>
<!-- 3415&#45;&gt;8938 -->
<g id="edge48" class="edge"><title>3415&#45;&gt;8938</title>
<path fill="none" stroke="green" stroke-width="0.207889" d="M328.91,-364.336C322.833,-360.725 316.176,-356.82 310,-353.304 280.963,-336.772 272.401,-334.906 244,-317.304 240.801,-315.321 237.503,-313.176 234.249,-310.994"/>
<polygon fill="green" stroke="green" stroke-width="0.207889" points="236.061,-307.993 225.836,-305.219 232.1,-313.764 236.061,-307.993"/>
</g>
<!-- 11242 -->
<g id="node34" class="node"><title>11242</title>
<ellipse fill="white" stroke="black" cx="269" cy="-1007.65" rx="27.6545" ry="27.6545"/>
<text text-anchor="middle" x="269" y="-1005.45" font-family="Times,serif" font-size="9.00">11242</text>
</g>
<!-- 11242&#45;&gt;5106 -->
<g id="edge17" class="edge"><title>11242&#45;&gt;5106</title>
<path fill="none" stroke="red" stroke-width="0.279696" d="M286.671,-985.75C296.64,-973.962 309.189,-959.121 319.815,-946.556"/>
<polygon fill="red" stroke="red" stroke-width="0.279696" points="322.689,-948.578 326.474,-938.682 317.344,-944.058 322.689,-948.578"/>
</g>
<!-- 8938&#45;&gt;2797 -->
<g id="edge29" class="edge"><title>8938&#45;&gt;2797</title>
<path fill="none" stroke="green" stroke-width="0.158584" d="M198.643,-266.045C195.549,-256.506 191.891,-245.228 188.521,-234.836"/>
<polygon fill="green" stroke="green" stroke-width="0.158584" points="191.819,-233.662 185.405,-225.23 185.161,-235.822 191.819,-233.662"/>
</g>
<!-- 17389&#45;&gt;3415 -->
<g id="edge1" class="edge"><title>17389&#45;&gt;3415</title>
<path fill="none" stroke="red" stroke-width="0.346145" d="M350,-438.537C350,-430.444 350,-421.453 350,-412.963"/>
<polygon fill="red" stroke="red" stroke-width="0.346145" points="353.5,-412.95 350,-402.95 346.5,-412.95 353.5,-412.95"/>
</g>
<!-- 3310&#45;&gt;uy -->
<g id="edge23" class="edge"><title>3310&#45;&gt;uy</title>
<path fill="none" stroke="red" stroke-width="0.487213" d="M438.723,-639.33C423.931,-634.047 404.366,-627.108 387,-621.11 339.574,-604.73 324.499,-608.29 280,-585.11 275.214,-582.616 270.374,-579.519 265.863,-576.329"/>
<polygon fill="red" stroke="red" stroke-width="0.487213" points="267.795,-573.404 257.691,-570.216 263.602,-579.009 267.795,-573.404"/>
</g>
<!-- 3310&#45;&gt;10765 -->
<g id="edge45" class="edge"><title>3310&#45;&gt;10765</title>
<path fill="none" stroke="red" stroke-width="0.275704" d="M462,-623.795C462,-615.083 462,-605.017 462,-595.437"/>
<polygon fill="red" stroke="red" stroke-width="0.275704" points="465.5,-595.321 462,-585.321 458.5,-595.322 465.5,-595.321"/>
</g>
<!-- 3310&#45;&gt;11426 -->
<g id="edge35" class="edge"><title>3310&#45;&gt;11426</title>
<path fill="none" stroke="green" stroke-width="0.705477" d="M480.999,-632.563C498.442,-618.678 524.555,-597.892 544.674,-581.877"/>
<polygon fill="green" stroke="green" stroke-width="0.705477" points="546.966,-584.526 552.61,-575.559 542.606,-579.049 546.966,-584.526"/>
</g>
<!-- 3310&#45;&gt;5569 -->
<g id="edge44" class="edge"><title>3310&#45;&gt;5569</title>
<path fill="none" stroke="red" stroke-width="0.361108" d="M476.195,-628.069C484.111,-616.191 493.463,-600.421 499,-585.11 517.024,-535.267 518,-520.38 518,-467.378 518,-467.378 518,-467.378 518,-377.052 518,-325.291 517.194,-310.608 499,-262.149 494.83,-251.043 488.49,-239.754 482.23,-230.023"/>
<polygon fill="red" stroke="red" stroke-width="0.361108" points="485.043,-227.933 476.568,-221.575 479.228,-231.83 485.043,-227.933"/>
</g>
<!-- 3310&#45;&gt;6753 -->
<g id="edge47" class="edge"><title>3310&#45;&gt;6753</title>
<path fill="none" stroke="green" stroke-width="0.115432" d="M442.652,-632.785C411.115,-607.524 348.582,-553.228 313,-493.955 297.872,-468.756 288.215,-436.681 282.575,-412.828"/>
<polygon fill="green" stroke="green" stroke-width="0.115432" points="285.935,-411.818 280.33,-402.827 279.105,-413.351 285.935,-411.818"/>
</g>
<!-- 5106&#45;&gt;16909 -->
<g id="edge11" class="edge"><title>5106&#45;&gt;16909</title>
<path fill="none" stroke="green" stroke-width="0.505602" d="M342,-894.275C342,-886.401 342,-877.464 342,-868.866"/>
<polygon fill="green" stroke="green" stroke-width="0.505602" points="345.5,-868.643 342,-858.643 338.5,-868.643 345.5,-868.643"/>
</g>
<!-- 5106&#45;&gt;6840 -->
<g id="edge28" class="edge"><title>5106&#45;&gt;6840</title>
<path fill="none" stroke="red" stroke-width="0.235271" d="M361.65,-904.066C381.115,-889.946 411.111,-868.187 433.052,-852.27"/>
<polygon fill="red" stroke="red" stroke-width="0.235271" points="435.281,-854.977 441.32,-846.272 431.171,-849.311 435.281,-854.977"/>
</g>
<!-- 5106&#45;&gt;8258 -->
<g id="edge41" class="edge"><title>5106&#45;&gt;8258</title>
<path fill="none" stroke="red" stroke-width="0.153078" d="M326.811,-899.59C317.088,-887.599 304.323,-871.857 293.558,-858.582"/>
<polygon fill="red" stroke="red" stroke-width="0.153078" points="296.176,-856.253 287.159,-850.69 290.739,-860.662 296.176,-856.253"/>
</g>
<!-- 9203&#45;&gt;42247 -->
<g id="edge19" class="edge"><title>9203&#45;&gt;42247</title>
<path fill="none" stroke="green" stroke-width="0.322713" d="M57.732,-623.795C57.6343,-615.083 57.5214,-605.017 57.4139,-595.437"/>
<polygon fill="green" stroke="green" stroke-width="0.322713" points="60.9125,-595.282 57.3005,-585.321 53.913,-595.36 60.9125,-595.282"/>
</g>
<!-- 5754&#45;&gt;uy -->
<g id="edge20" class="edge"><title>5754&#45;&gt;uy</title>
<path fill="none" stroke="green" stroke-width="0.4332" d="M241.804,-623.795C242.196,-612.146 242.669,-598.076 243.076,-585.987"/>
<polygon fill="green" stroke="green" stroke-width="0.4332" points="246.574,-586.096 243.413,-575.984 239.578,-585.86 246.574,-586.096"/>
</g>
</g>
</svg>
