<?xml version="1.0" encoding="UTF-8" standalone="no"?>
<!DOCTYPE svg PUBLIC "-//W3C//DTD SVG 1.1//EN"
 "http://www.w3.org/Graphics/SVG/1.1/DTD/svg11.dtd">
<!-- Generated by graphviz version 2.38.0 (20140413.2041)
 -->
<!-- Title: %3 Pages: 1 -->
<svg width="904pt" height="1133pt"
 viewBox="0.00 0.00 903.97 1132.96" xmlns="http://www.w3.org/2000/svg" xmlns:xlink="http://www.w3.org/1999/xlink">
<g id="graph0" class="graph" transform="scale(1 1) rotate(0) translate(4 1128.96)">
<title>%3</title>
<polygon fill="white" stroke="none" points="-4,4 -4,-1128.96 899.969,-1128.96 899.969,4 -4,4"/>
<!-- ext -->
<g id="node1" class="node"><title>ext</title>
<polygon fill="lightgray" stroke="black" points="207.892,-577.846 180.892,-577.846 180.892,-559.846 207.892,-559.846 207.892,-577.846"/>
<text text-anchor="middle" x="194.392" y="-566.646" font-family="Times,serif" font-size="9.00">ext</text>
</g>
<!-- wz -->
<g id="node9" class="node"><title>wz</title>
<ellipse fill="lightblue" stroke="black" cx="526.392" cy="-115.903" rx="19.1842" ry="19.1842"/>
<text text-anchor="middle" x="526.392" y="-113.703" font-family="Times,serif" font-size="9.00">wz</text>
</g>
<!-- ext&#45;&gt;wz -->
<g id="edge51" class="edge"><title>ext&#45;&gt;wz</title>
<path fill="none" stroke="green" stroke-width="0.254849" d="M203.664,-559.546C215.434,-548.431 235.406,-527.517 245.392,-505.269 267.097,-456.915 264.392,-440.54 264.392,-387.538 264.392,-387.538 264.392,-387.538 264.392,-294.383 264.392,-182.782 429.353,-136.544 497.486,-122.206"/>
<polygon fill="green" stroke="green" stroke-width="0.254849" points="498.441,-125.584 507.55,-120.173 497.055,-118.722 498.441,-125.584"/>
</g>
<!-- 19927 -->
<g id="node34" class="node"><title>19927</title>
<ellipse fill="white" stroke="black" cx="208.392" cy="-477.692" rx="27.6545" ry="27.6545"/>
<text text-anchor="middle" x="208.392" y="-475.492" font-family="Times,serif" font-size="9.00">19927</text>
</g>
<!-- ext&#45;&gt;19927 -->
<g id="edge52" class="edge"><title>ext&#45;&gt;19927</title>
<path fill="none" stroke="green" stroke-width="0.112609" d="M195.684,-559.619C197.276,-549.48 200.087,-531.58 202.661,-515.189"/>
<polygon fill="green" stroke="green" stroke-width="0.112609" points="206.126,-515.682 204.22,-505.26 199.211,-514.596 206.126,-515.682"/>
</g>
<!-- 21479 -->
<g id="node40" class="node"><title>21479</title>
<ellipse fill="white" stroke="black" cx="320.392" cy="-477.692" rx="27.6545" ry="27.6545"/>
<text text-anchor="middle" x="320.392" y="-475.492" font-family="Times,serif" font-size="9.00">21479</text>
</g>
<!-- ext&#45;&gt;21479 -->
<g id="edge13" class="edge"><title>ext&#45;&gt;21479</title>
<path fill="none" stroke="red" stroke-width="0.553833" d="M202.349,-559.504C207.759,-554.035 215.213,-546.885 222.392,-541.269 225.495,-538.842 261.254,-516.106 288.689,-498.732"/>
<polygon fill="red" stroke="red" stroke-width="0.553833" points="290.674,-501.618 297.252,-493.312 286.93,-495.703 290.674,-501.618"/>
</g>
<!-- eyt -->
<g id="node2" class="node"><title>eyt</title>
<polygon fill="lightgray" stroke="black" points="127.892,-760.155 100.892,-760.155 100.892,-742.155 127.892,-742.155 127.892,-760.155"/>
<text text-anchor="middle" x="114.392" y="-748.955" font-family="Times,serif" font-size="9.00">eyt</text>
</g>
<!-- ux -->
<g id="node7" class="node"><title>ux</title>
<ellipse fill="lightblue" stroke="black" cx="761.392" cy="-27.5772" rx="18.2703" ry="18.2703"/>
<text text-anchor="middle" x="761.392" y="-25.3772" font-family="Times,serif" font-size="9.00">ux</text>
</g>
<!-- eyt&#45;&gt;ux -->
<g id="edge7" class="edge"><title>eyt&#45;&gt;ux</title>
<path fill="none" stroke="red" stroke-width="1.16507" d="M100.701,-745.109C79.8628,-736.662 40.5877,-717.575 21.3921,-687.578 -7.17637,-642.934 2.39212,-622.848 2.39212,-569.846 2.39212,-569.846 2.39212,-569.846 2.39212,-203.229 2.39212,-50.3513 594.586,-31.2807 732.797,-28.9116"/>
<polygon fill="red" stroke="red" stroke-width="1.16507" points="733.062,-32.408 743.006,-28.7536 732.953,-25.4089 733.062,-32.408"/>
</g>
<!-- eyt&#45;&gt;wz -->
<g id="edge5" class="edge"><title>eyt&#45;&gt;wz</title>
<path fill="none" stroke="red" stroke-width="1.11659" d="M114.392,-741.888C114.392,-716.313 114.392,-636.21 114.392,-569.846 114.392,-569.846 114.392,-569.846 114.392,-294.383 114.392,-127.695 402.364,-115.671 496.796,-116.209"/>
<polygon fill="red" stroke="red" stroke-width="1.11659" points="497.035,-119.712 507.073,-116.323 497.113,-112.712 497.035,-119.712"/>
</g>
<!-- 20583 -->
<g id="node39" class="node"><title>20583</title>
<ellipse fill="white" stroke="black" cx="58.3921" cy="-660.001" rx="27.6545" ry="27.6545"/>
<text text-anchor="middle" x="58.3921" y="-657.801" font-family="Times,serif" font-size="9.00">20583</text>
</g>
<!-- eyt&#45;&gt;20583 -->
<g id="edge46" class="edge"><title>eyt&#45;&gt;20583</title>
<path fill="none" stroke="green" stroke-width="0.153059" d="M109.224,-741.927C102.215,-730.768 89.2983,-710.205 78.2403,-692.6"/>
<polygon fill="green" stroke="green" stroke-width="0.153059" points="80.9511,-690.335 72.6682,-683.729 75.0234,-694.058 80.9511,-690.335"/>
</g>
<!-- 510 -->
<g id="node45" class="node"><title>510</title>
<ellipse fill="white" stroke="black" cx="505.392" cy="-660.001" rx="21.4286" ry="21.4286"/>
<text text-anchor="middle" x="505.392" y="-657.801" font-family="Times,serif" font-size="9.00">510</text>
</g>
<!-- eyt&#45;&gt;510 -->
<g id="edge18" class="edge"><title>eyt&#45;&gt;510</title>
<path fill="none" stroke="green" stroke-width="0.156124" d="M128.227,-746.496C149.447,-740.977 191.36,-730.438 227.392,-723.578 335.94,-702.91 372.462,-732.553 473.392,-687.578 476.657,-686.123 479.856,-684.237 482.892,-682.141"/>
<polygon fill="green" stroke="green" stroke-width="0.156124" points="485.208,-684.773 490.938,-675.862 480.901,-679.255 485.208,-684.773"/>
</g>
<!-- 1791 -->
<g id="node46" class="node"><title>1791</title>
<ellipse fill="white" stroke="black" cx="429.392" cy="-477.692" rx="25" ry="25"/>
<text text-anchor="middle" x="429.392" y="-475.492" font-family="Times,serif" font-size="9.00">1791</text>
</g>
<!-- eyt&#45;&gt;1791 -->
<g id="edge19" class="edge"><title>eyt&#45;&gt;1791</title>
<path fill="none" stroke="green" stroke-width="0.463904" d="M119.561,-741.861C138.922,-711.37 210.306,-604.009 293.392,-541.269 310.571,-528.297 362.46,-505.912 396.948,-491.727"/>
<polygon fill="green" stroke="green" stroke-width="0.463904" points="398.668,-494.805 406.602,-487.783 396.021,-488.325 398.668,-494.805"/>
</g>
<!-- sf -->
<g id="node3" class="node"><title>sf</title>
<polygon fill="lightgray" stroke="black" points="379.892,-760.155 356.892,-760.155 356.892,-742.155 379.892,-742.155 379.892,-760.155"/>
<text text-anchor="middle" x="368.392" y="-748.955" font-family="Times,serif" font-size="9.00">sf</text>
</g>
<!-- 19497 -->
<g id="node21" class="node"><title>19497</title>
<ellipse fill="white" stroke="black" cx="189.392" cy="-386.538" rx="27.6545" ry="27.6545"/>
<text text-anchor="middle" x="189.392" y="-384.338" font-family="Times,serif" font-size="9.00">19497</text>
</g>
<!-- sf&#45;&gt;19497 -->
<g id="edge3" class="edge"><title>sf&#45;&gt;19497</title>
<path fill="none" stroke="red" stroke-width="0.269763" d="M368.267,-741.849C367.47,-720.308 362.223,-662.249 329.392,-632.423 276.083,-583.995 216.308,-652.724 171.392,-596.423 131.316,-546.189 155.076,-465.897 173.685,-420.895"/>
<polygon fill="red" stroke="red" stroke-width="0.269763" points="176.953,-422.156 177.671,-411.585 170.518,-419.401 176.953,-422.156"/>
</g>
<!-- 2862 -->
<g id="node25" class="node"><title>2862</title>
<ellipse fill="white" stroke="black" cx="327.392" cy="-568.846" rx="25" ry="25"/>
<text text-anchor="middle" x="327.392" y="-566.646" font-family="Times,serif" font-size="9.00">2862</text>
</g>
<!-- sf&#45;&gt;2862 -->
<g id="edge64" class="edge"><title>sf&#45;&gt;2862</title>
<path fill="none" stroke="red" stroke-width="0.110985" d="M369.231,-741.952C370.955,-722.485 373.835,-672.15 362.392,-632.423 358.955,-620.489 352.88,-608.352 346.746,-597.983"/>
<polygon fill="red" stroke="red" stroke-width="0.110985" points="349.652,-596.027 341.406,-589.375 343.704,-599.718 349.652,-596.027"/>
</g>
<!-- 21556 -->
<g id="node26" class="node"><title>21556</title>
<ellipse fill="white" stroke="black" cx="292.392" cy="-660.001" rx="27.6545" ry="27.6545"/>
<text text-anchor="middle" x="292.392" y="-657.801" font-family="Times,serif" font-size="9.00">21556</text>
</g>
<!-- sf&#45;&gt;21556 -->
<g id="edge61" class="edge"><title>sf&#45;&gt;21556</title>
<path fill="none" stroke="green" stroke-width="0.609273" d="M361.378,-741.927C351.309,-730.115 332.256,-707.765 316.721,-689.541"/>
<polygon fill="green" stroke="green" stroke-width="0.609273" points="319.027,-686.85 309.876,-681.51 313.7,-691.391 319.027,-686.85"/>
</g>
<!-- 2617 -->
<g id="node27" class="node"><title>2617</title>
<ellipse fill="white" stroke="black" cx="439.392" cy="-660.001" rx="25" ry="25"/>
<text text-anchor="middle" x="439.392" y="-657.801" font-family="Times,serif" font-size="9.00">2617</text>
</g>
<!-- sf&#45;&gt;2617 -->
<g id="edge6" class="edge"><title>sf&#45;&gt;2617</title>
<path fill="none" stroke="red" stroke-width="0.220737" d="M374.944,-741.927C384.633,-729.761 403.224,-706.417 417.958,-687.915"/>
<polygon fill="red" stroke="red" stroke-width="0.220737" points="420.713,-690.075 424.204,-680.072 415.237,-685.714 420.713,-690.075"/>
</g>
<!-- sl -->
<g id="node4" class="node"><title>sl</title>
<polygon fill="lightgray" stroke="black" points="581.892,-1109.22 558.892,-1109.22 558.892,-1091.22 581.892,-1091.22 581.892,-1109.22"/>
<text text-anchor="middle" x="570.392" y="-1098.02" font-family="Times,serif" font-size="9.00">sl</text>
</g>
<!-- 45 -->
<g id="node24" class="node"><title>45</title>
<ellipse fill="white" stroke="black" cx="570.392" cy="-1018.25" rx="18.2703" ry="18.2703"/>
<text text-anchor="middle" x="570.392" y="-1016.05" font-family="Times,serif" font-size="9.00">45</text>
</g>
<!-- sl&#45;&gt;45 -->
<g id="edge44" class="edge"><title>sl&#45;&gt;45</title>
<path fill="none" stroke="red" stroke-width="0.181844" d="M570.392,-1090.96C570.392,-1080.65 570.392,-1062.48 570.392,-1047.02"/>
<polygon fill="red" stroke="red" stroke-width="0.181844" points="573.892,-1046.87 570.392,-1036.87 566.892,-1046.87 573.892,-1046.87"/>
</g>
<!-- sr -->
<g id="node5" class="node"><title>sr</title>
<polygon fill="lightgray" stroke="black" points="879.892,-124.903 856.892,-124.903 856.892,-106.903 879.892,-106.903 879.892,-124.903"/>
<text text-anchor="middle" x="868.392" y="-113.703" font-family="Times,serif" font-size="9.00">sr</text>
</g>
<!-- sr&#45;&gt;ux -->
<g id="edge48" class="edge"><title>sr&#45;&gt;ux</title>
<path fill="none" stroke="red" stroke-width="0.236109" d="M862.188,-106.545C858.454,-101.78 853.454,-95.8433 848.392,-91.1543 828.75,-72.9575 803.697,-55.4437 785.525,-43.5957"/>
<polygon fill="red" stroke="red" stroke-width="0.236109" points="787.021,-40.3971 776.714,-37.9428 783.241,-46.2888 787.021,-40.3971"/>
</g>
<!-- 20375 -->
<g id="node16" class="node"><title>20375</title>
<ellipse fill="white" stroke="black" cx="868.392" cy="-27.5772" rx="27.6545" ry="27.6545"/>
<text text-anchor="middle" x="868.392" y="-25.3772" font-family="Times,serif" font-size="9.00">20375</text>
</g>
<!-- sr&#45;&gt;20375 -->
<g id="edge8" class="edge"><title>sr&#45;&gt;20375</title>
<path fill="none" stroke="green" stroke-width="0.506919" d="M868.392,-106.626C868.392,-97.0937 868.392,-80.7819 868.392,-65.5274"/>
<polygon fill="green" stroke="green" stroke-width="0.506919" points="871.892,-65.2318 868.392,-55.2319 864.892,-65.2319 871.892,-65.2318"/>
</g>
<!-- &#45;6 -->
<g id="node6" class="node"><title>&#45;6</title>
<polygon fill="lightgray" stroke="black" points="708.392,-669.001 684.392,-669.001 684.392,-651.001 708.392,-651.001 708.392,-669.001"/>
<text text-anchor="middle" x="696.392" y="-657.801" font-family="Times,serif" font-size="9.00">&#45;6</text>
</g>
<!-- 2502 -->
<g id="node31" class="node"><title>2502</title>
<ellipse fill="white" stroke="black" cx="774.392" cy="-568.846" rx="25" ry="25"/>
<text text-anchor="middle" x="774.392" y="-566.646" font-family="Times,serif" font-size="9.00">2502</text>
</g>
<!-- &#45;6&#45;&gt;2502 -->
<g id="edge45" class="edge"><title>&#45;6&#45;&gt;2502</title>
<path fill="none" stroke="red" stroke-width="0.18538" d="M702.498,-650.976C706.614,-645.641 712.217,-638.521 717.392,-632.423 728.132,-619.77 740.489,-606.102 750.946,-594.777"/>
<polygon fill="red" stroke="red" stroke-width="0.18538" points="753.601,-597.062 757.84,-587.352 748.471,-592.3 753.601,-597.062"/>
</g>
<!-- 1739 -->
<g id="node33" class="node"><title>1739</title>
<ellipse fill="white" stroke="black" cx="707.392" cy="-568.846" rx="25" ry="25"/>
<text text-anchor="middle" x="707.392" y="-566.646" font-family="Times,serif" font-size="9.00">1739</text>
</g>
<!-- &#45;6&#45;&gt;1739 -->
<g id="edge25" class="edge"><title>&#45;6&#45;&gt;1739</title>
<path fill="none" stroke="red" stroke-width="1.04741" d="M697.407,-650.773C698.72,-640.135 701.087,-620.951 703.187,-603.931"/>
<polygon fill="red" stroke="red" stroke-width="1.04741" points="706.697,-604.062 704.448,-593.709 699.75,-603.205 706.697,-604.062"/>
</g>
<!-- 99 -->
<g id="node38" class="node"><title>99</title>
<ellipse fill="white" stroke="black" cx="646.392" cy="-568.846" rx="18.2703" ry="18.2703"/>
<text text-anchor="middle" x="646.392" y="-566.646" font-family="Times,serif" font-size="9.00">99</text>
</g>
<!-- &#45;6&#45;&gt;99 -->
<g id="edge62" class="edge"><title>&#45;6&#45;&gt;99</title>
<path fill="none" stroke="green" stroke-width="0.526162" d="M691.778,-650.773C684.622,-638.014 670.572,-612.96 659.99,-594.092"/>
<polygon fill="green" stroke="green" stroke-width="0.526162" points="662.917,-592.157 654.973,-585.147 656.812,-595.581 662.917,-592.157"/>
</g>
<!-- ux&#45;&gt;ux -->
<g id="edge50" class="edge"><title>ux&#45;&gt;ux</title>
<path fill="none" stroke="green" stroke-width="1.42741" d="M774.071,-41.1405C785.517,-47.7389 797.777,-43.2178 797.777,-27.5772 797.777,-16.4577 791.58,-10.9583 783.885,-11.0791"/>
<polygon fill="green" stroke="green" stroke-width="1.42741" points="782.649,-7.79549 774.071,-14.0138 784.655,-14.5021 782.649,-7.79549"/>
</g>
<!-- 2180 -->
<g id="node10" class="node"><title>2180</title>
<ellipse fill="white" stroke="black" cx="776.392" cy="-204.229" rx="25" ry="25"/>
<text text-anchor="middle" x="776.392" y="-202.029" font-family="Times,serif" font-size="9.00">2180</text>
</g>
<!-- ux&#45;&gt;2180 -->
<g id="edge43" class="edge"><title>ux&#45;&gt;2180</title>
<path fill="none" stroke="green" stroke-width="0.101284" d="M762.922,-46.3888C765.391,-75.1373 770.297,-132.257 773.457,-169.054"/>
<polygon fill="green" stroke="green" stroke-width="0.101284" points="769.995,-169.647 774.338,-179.311 776.969,-169.048 769.995,-169.647"/>
</g>
<!-- uy -->
<g id="node8" class="node"><title>uy</title>
<ellipse fill="lightblue" stroke="black" cx="429.392" cy="-386.538" rx="18.2703" ry="18.2703"/>
<text text-anchor="middle" x="429.392" y="-384.338" font-family="Times,serif" font-size="9.00">uy</text>
</g>
<!-- 2655 -->
<g id="node37" class="node"><title>2655</title>
<ellipse fill="white" stroke="black" cx="776.392" cy="-295.383" rx="25" ry="25"/>
<text text-anchor="middle" x="776.392" y="-293.183" font-family="Times,serif" font-size="9.00">2655</text>
</g>
<!-- uy&#45;&gt;2655 -->
<g id="edge38" class="edge"><title>uy&#45;&gt;2655</title>
<path fill="none" stroke="red" stroke-width="0.377874" d="M447.077,-380.994C501.969,-366.891 670.085,-323.697 742.561,-305.076"/>
<polygon fill="red" stroke="red" stroke-width="0.377874" points="743.721,-308.391 752.535,-302.513 741.979,-301.612 743.721,-308.391"/>
</g>
<!-- 19948 -->
<g id="node41" class="node"><title>19948</title>
<ellipse fill="white" stroke="black" cx="429.392" cy="-295.383" rx="27.6545" ry="27.6545"/>
<text text-anchor="middle" x="429.392" y="-293.183" font-family="Times,serif" font-size="9.00">19948</text>
</g>
<!-- uy&#45;&gt;19948 -->
<g id="edge30" class="edge"><title>uy&#45;&gt;19948</title>
<path fill="none" stroke="green" stroke-width="0.340112" d="M429.392,-367.924C429.392,-358.033 429.392,-345.305 429.392,-333.334"/>
<polygon fill="green" stroke="green" stroke-width="0.340112" points="432.892,-333.099 429.392,-323.099 425.892,-333.099 432.892,-333.099"/>
</g>
<!-- 2180&#45;&gt;wz -->
<g id="edge55" class="edge"><title>2180&#45;&gt;wz</title>
<path fill="none" stroke="red" stroke-width="0.111076" d="M753.321,-195.262C707.165,-179.324 603.638,-143.576 553.984,-126.431"/>
<polygon fill="red" stroke="red" stroke-width="0.111076" points="554.841,-123.024 544.246,-123.068 552.556,-129.64 554.841,-123.024"/>
</g>
<!-- 1865 -->
<g id="node32" class="node"><title>1865</title>
<ellipse fill="white" stroke="black" cx="814.392" cy="-115.903" rx="25" ry="25"/>
<text text-anchor="middle" x="814.392" y="-113.703" font-family="Times,serif" font-size="9.00">1865</text>
</g>
<!-- 2180&#45;&gt;1865 -->
<g id="edge59" class="edge"><title>2180&#45;&gt;1865</title>
<path fill="none" stroke="green" stroke-width="0.652484" d="M786.178,-180.998C790.6,-170.952 795.901,-158.91 800.708,-147.99"/>
<polygon fill="green" stroke="green" stroke-width="0.652484" points="803.945,-149.323 804.771,-138.76 797.539,-146.502 803.945,-149.323"/>
</g>
<!-- 22533 -->
<g id="node11" class="node"><title>22533</title>
<ellipse fill="white" stroke="black" cx="638.392" cy="-842.309" rx="27.6545" ry="27.6545"/>
<text text-anchor="middle" x="638.392" y="-840.109" font-family="Times,serif" font-size="9.00">22533</text>
</g>
<!-- 145 -->
<g id="node14" class="node"><title>145</title>
<ellipse fill="white" stroke="black" cx="638.392" cy="-751.155" rx="21.4286" ry="21.4286"/>
<text text-anchor="middle" x="638.392" y="-748.955" font-family="Times,serif" font-size="9.00">145</text>
</g>
<!-- 22533&#45;&gt;145 -->
<g id="edge17" class="edge"><title>22533&#45;&gt;145</title>
<path fill="none" stroke="green" stroke-width="0.257525" d="M638.392,-814.56C638.392,-804.586 638.392,-793.187 638.392,-782.884"/>
<polygon fill="green" stroke="green" stroke-width="0.257525" points="641.892,-782.649 638.392,-772.649 634.892,-782.649 641.892,-782.649"/>
</g>
<!-- 22152 -->
<g id="node12" class="node"><title>22152</title>
<ellipse fill="white" stroke="black" cx="638.392" cy="-660.001" rx="27.6545" ry="27.6545"/>
<text text-anchor="middle" x="638.392" y="-657.801" font-family="Times,serif" font-size="9.00">22152</text>
</g>
<!-- 22152&#45;&gt;99 -->
<g id="edge49" class="edge"><title>22152&#45;&gt;99</title>
<path fill="none" stroke="green" stroke-width="0.513685" d="M640.792,-632.251C641.783,-621.213 642.93,-608.428 643.927,-597.315"/>
<polygon fill="green" stroke="green" stroke-width="0.513685" points="647.42,-597.557 644.827,-587.284 640.448,-596.931 647.42,-597.557"/>
</g>
<!-- 783 -->
<g id="node13" class="node"><title>783</title>
<ellipse fill="white" stroke="black" cx="264.392" cy="-1018.25" rx="21.4286" ry="21.4286"/>
<text text-anchor="middle" x="264.392" y="-1016.05" font-family="Times,serif" font-size="9.00">783</text>
</g>
<!-- 783&#45;&gt;783 -->
<g id="edge47" class="edge"><title>783&#45;&gt;783</title>
<path fill="none" stroke="red" stroke-width="0.14461" d="M280.912,-1031.79C292.347,-1035.89 303.605,-1031.38 303.605,-1018.25 303.605,-1009.23 298.284,-1004.28 291.242,-1003.4"/>
<polygon fill="red" stroke="red" stroke-width="0.14461" points="290.387,-999.978 280.912,-1004.72 291.276,-1006.92 290.387,-999.978"/>
</g>
<!-- 21525 -->
<g id="node15" class="node"><title>21525</title>
<ellipse fill="white" stroke="black" cx="264.392" cy="-933.464" rx="27.6545" ry="27.6545"/>
<text text-anchor="middle" x="264.392" y="-931.264" font-family="Times,serif" font-size="9.00">21525</text>
</g>
<!-- 783&#45;&gt;21525 -->
<g id="edge22" class="edge"><title>783&#45;&gt;21525</title>
<path fill="none" stroke="green" stroke-width="0.245127" d="M264.392,-996.789C264.392,-989.08 264.392,-980.056 264.392,-971.307"/>
<polygon fill="green" stroke="green" stroke-width="0.245127" points="267.892,-971.257 264.392,-961.257 260.892,-971.258 267.892,-971.257"/>
</g>
<!-- 145&#45;&gt;22152 -->
<g id="edge29" class="edge"><title>145&#45;&gt;22152</title>
<path fill="none" stroke="green" stroke-width="0.380833" d="M638.392,-729.924C638.392,-720.425 638.392,-708.797 638.392,-697.818"/>
<polygon fill="green" stroke="green" stroke-width="0.380833" points="641.892,-697.58 638.392,-687.58 634.892,-697.58 641.892,-697.58"/>
</g>
<!-- 7540 -->
<g id="node44" class="node"><title>7540</title>
<ellipse fill="white" stroke="black" cx="264.392" cy="-842.309" rx="25" ry="25"/>
<text text-anchor="middle" x="264.392" y="-840.109" font-family="Times,serif" font-size="9.00">7540</text>
</g>
<!-- 21525&#45;&gt;7540 -->
<g id="edge1" class="edge"><title>21525&#45;&gt;7540</title>
<path fill="none" stroke="green" stroke-width="0.501264" d="M264.392,-905.714C264.392,-896.845 264.392,-886.848 264.392,-877.498"/>
<polygon fill="green" stroke="green" stroke-width="0.501264" points="267.892,-877.309 264.392,-867.309 260.892,-877.309 267.892,-877.309"/>
</g>
<!-- 538 -->
<g id="node17" class="node"><title>538</title>
<ellipse fill="white" stroke="black" cx="821.392" cy="-660.001" rx="21.4286" ry="21.4286"/>
<text text-anchor="middle" x="821.392" y="-657.801" font-family="Times,serif" font-size="9.00">538</text>
</g>
<!-- 538&#45;&gt;wz -->
<g id="edge35" class="edge"><title>538&#45;&gt;wz</title>
<path fill="none" stroke="green" stroke-width="0.143996" d="M821.802,-638.418C821.675,-614.446 819.569,-573.958 808.392,-541.269 746.938,-361.527 702.458,-326.25 585.392,-176.652 574.151,-162.287 559.803,-147.69 548.072,-136.52"/>
<polygon fill="green" stroke="green" stroke-width="0.143996" points="550.132,-133.655 540.438,-129.38 545.35,-138.767 550.132,-133.655"/>
</g>
<!-- 538&#45;&gt;2502 -->
<g id="edge57" class="edge"><title>538&#45;&gt;2502</title>
<path fill="none" stroke="red" stroke-width="1.01122" d="M811.881,-640.959C805.691,-629.218 797.466,-613.616 790.298,-600.018"/>
<polygon fill="red" stroke="red" stroke-width="1.01122" points="793.301,-598.21 785.542,-590.996 787.109,-601.474 793.301,-598.21"/>
</g>
<!-- 19490 -->
<g id="node18" class="node"><title>19490</title>
<ellipse fill="white" stroke="black" cx="513.392" cy="-477.692" rx="27.6545" ry="27.6545"/>
<text text-anchor="middle" x="513.392" y="-475.492" font-family="Times,serif" font-size="9.00">19490</text>
</g>
<!-- 19490&#45;&gt;uy -->
<g id="edge41" class="edge"><title>19490&#45;&gt;uy</title>
<path fill="none" stroke="red" stroke-width="0.38131" d="M494.75,-456.906C481.047,-442.362 462.481,-422.657 448.638,-407.964"/>
<polygon fill="red" stroke="red" stroke-width="0.38131" points="450.899,-405.261 441.494,-400.382 445.804,-410.061 450.899,-405.261"/>
</g>
<!-- 22307 -->
<g id="node19" class="node"><title>22307</title>
<ellipse fill="white" stroke="black" cx="264.392" cy="-751.155" rx="27.6545" ry="27.6545"/>
<text text-anchor="middle" x="264.392" y="-748.955" font-family="Times,serif" font-size="9.00">22307</text>
</g>
<!-- 22307&#45;&gt;uy -->
<g id="edge34" class="edge"><title>22307&#45;&gt;uy</title>
<path fill="none" stroke="green" stroke-width="0.504873" d="M258.384,-724.187C253.772,-700.167 249.158,-663.58 255.392,-632.423 264.004,-589.384 264.23,-574.073 293.392,-541.269 315.075,-516.878 333.898,-527.921 357.392,-505.269 372.255,-490.939 399.739,-442.543 416.114,-412.445"/>
<polygon fill="green" stroke="green" stroke-width="0.504873" points="419.336,-413.844 421.01,-403.382 413.177,-410.516 419.336,-413.844"/>
</g>
<!-- 22307&#45;&gt;21556 -->
<g id="edge23" class="edge"><title>22307&#45;&gt;21556</title>
<path fill="none" stroke="red" stroke-width="0.156372" d="M272.491,-724.368C275.272,-715.513 278.433,-705.447 281.405,-695.986"/>
<polygon fill="red" stroke="red" stroke-width="0.156372" points="284.751,-697.011 284.408,-686.422 278.073,-694.914 284.751,-697.011"/>
</g>
<!-- 21672 -->
<g id="node20" class="node"><title>21672</title>
<ellipse fill="white" stroke="black" cx="582.392" cy="-568.846" rx="27.6545" ry="27.6545"/>
<text text-anchor="middle" x="582.392" y="-566.646" font-family="Times,serif" font-size="9.00">21672</text>
</g>
<!-- 21672&#45;&gt;wz -->
<g id="edge60" class="edge"><title>21672&#45;&gt;wz</title>
<path fill="none" stroke="red" stroke-width="0.812013" d="M582.392,-541.267C582.392,-506.096 582.392,-442.162 582.392,-387.538 582.392,-387.538 582.392,-387.538 582.392,-294.383 582.392,-241.381 581.926,-226.308 563.392,-176.652 558.592,-163.792 550.866,-150.696 543.712,-140.055"/>
<polygon fill="red" stroke="red" stroke-width="0.812013" points="546.509,-137.948 537.914,-131.753 540.77,-141.956 546.509,-137.948"/>
</g>
<!-- 21672&#45;&gt;19490 -->
<g id="edge14" class="edge"><title>21672&#45;&gt;19490</title>
<path fill="none" stroke="green" stroke-width="0.160894" d="M565.689,-546.265C556.875,-534.875 545.926,-520.729 536.328,-508.327"/>
<polygon fill="green" stroke="green" stroke-width="0.160894" points="538.83,-505.841 529.941,-500.075 533.294,-510.125 538.83,-505.841"/>
</g>
<!-- 22004 -->
<g id="node43" class="node"><title>22004</title>
<ellipse fill="white" stroke="black" cx="189.392" cy="-295.383" rx="27.6545" ry="27.6545"/>
<text text-anchor="middle" x="189.392" y="-293.183" font-family="Times,serif" font-size="9.00">22004</text>
</g>
<!-- 19497&#45;&gt;22004 -->
<g id="edge2" class="edge"><title>19497&#45;&gt;22004</title>
<path fill="none" stroke="green" stroke-width="0.336708" d="M189.392,-358.788C189.392,-350.766 189.392,-341.822 189.392,-333.267"/>
<polygon fill="green" stroke="green" stroke-width="0.336708" points="192.892,-333.114 189.392,-323.114 185.892,-333.114 192.892,-333.114"/>
</g>
<!-- 20010 -->
<g id="node22" class="node"><title>20010</title>
<ellipse fill="white" stroke="black" cx="453.392" cy="-204.229" rx="27.6545" ry="27.6545"/>
<text text-anchor="middle" x="453.392" y="-202.029" font-family="Times,serif" font-size="9.00">20010</text>
</g>
<!-- 20010&#45;&gt;wz -->
<g id="edge10" class="edge"><title>20010&#45;&gt;wz</title>
<path fill="none" stroke="red" stroke-width="0.544283" d="M471.063,-182.332C482.176,-169.191 496.494,-152.259 507.781,-138.912"/>
<polygon fill="red" stroke="red" stroke-width="0.544283" points="510.576,-141.027 514.361,-131.131 505.231,-136.507 510.576,-141.027"/>
</g>
<!-- 22057 -->
<g id="node23" class="node"><title>22057</title>
<ellipse fill="white" stroke="black" cx="488.392" cy="-933.464" rx="27.6545" ry="27.6545"/>
<text text-anchor="middle" x="488.392" y="-931.264" font-family="Times,serif" font-size="9.00">22057</text>
</g>
<!-- 22057&#45;&gt;510 -->
<g id="edge12" class="edge"><title>22057&#45;&gt;510</title>
<path fill="none" stroke="green" stroke-width="0.789728" d="M490.084,-905.442C493.266,-854.629 500.122,-745.155 503.472,-691.669"/>
<polygon fill="green" stroke="green" stroke-width="0.789728" points="506.98,-691.649 504.112,-681.45 499.993,-691.211 506.98,-691.649"/>
</g>
<!-- 45&#45;&gt;22057 -->
<g id="edge27" class="edge"><title>45&#45;&gt;22057</title>
<path fill="none" stroke="green" stroke-width="0.605686" d="M557.938,-1004.68C546.492,-993.124 529.154,-975.618 514.653,-960.978"/>
<polygon fill="green" stroke="green" stroke-width="0.605686" points="516.899,-958.272 507.375,-953.63 511.926,-963.198 516.899,-958.272"/>
</g>
<!-- 45&#45;&gt;2655 -->
<g id="edge53" class="edge"><title>45&#45;&gt;2655</title>
<path fill="none" stroke="red" stroke-width="0.169501" d="M588.707,-1015.52C653.841,-1008.25 870.392,-974.255 870.392,-843.309 870.392,-843.309 870.392,-843.309 870.392,-476.692 870.392,-415.834 827.766,-355.176 799.923,-322.045"/>
<polygon fill="red" stroke="red" stroke-width="0.169501" points="802.374,-319.527 793.197,-314.231 797.068,-324.094 802.374,-319.527"/>
</g>
<!-- 6898 -->
<g id="node42" class="node"><title>6898</title>
<ellipse fill="white" stroke="black" cx="597.392" cy="-933.464" rx="25" ry="25"/>
<text text-anchor="middle" x="597.392" y="-931.264" font-family="Times,serif" font-size="9.00">6898</text>
</g>
<!-- 45&#45;&gt;6898 -->
<g id="edge42" class="edge"><title>45&#45;&gt;6898</title>
<path fill="none" stroke="red" stroke-width="0.19339" d="M575.856,-1000.5C579.002,-990.852 583.064,-978.397 586.811,-966.908"/>
<polygon fill="red" stroke="red" stroke-width="0.19339" points="590.219,-967.747 589.992,-957.155 583.564,-965.577 590.219,-967.747"/>
</g>
<!-- 45&#45;&gt;510 -->
<g id="edge20" class="edge"><title>45&#45;&gt;510</title>
<path fill="none" stroke="green" stroke-width="0.238925" d="M567.257,-1000.07C556.957,-943.62 524.069,-763.365 510.911,-691.246"/>
<polygon fill="green" stroke="green" stroke-width="0.238925" points="514.284,-690.235 509.046,-681.026 507.398,-691.492 514.284,-690.235"/>
</g>
<!-- 21556&#45;&gt;2862 -->
<g id="edge58" class="edge"><title>21556&#45;&gt;2862</title>
<path fill="none" stroke="red" stroke-width="0.598942" d="M302.142,-634.166C306.106,-624.068 310.736,-612.275 314.94,-601.565"/>
<polygon fill="red" stroke="red" stroke-width="0.598942" points="318.254,-602.701 318.65,-592.114 311.738,-600.143 318.254,-602.701"/>
</g>
<!-- 2617&#45;&gt;21672 -->
<g id="edge56" class="edge"><title>2617&#45;&gt;21672</title>
<path fill="none" stroke="red" stroke-width="0.112462" d="M458.41,-644.046C463.777,-640.08 469.705,-635.93 475.392,-632.423 505.506,-613.852 516.278,-614.995 546.392,-596.423 548.533,-595.103 550.708,-593.692 552.874,-592.234"/>
<polygon fill="red" stroke="red" stroke-width="0.112462" points="554.917,-595.076 561.097,-586.47 550.899,-589.344 554.917,-595.076"/>
</g>
<!-- 22874 -->
<g id="node35" class="node"><title>22874</title>
<ellipse fill="white" stroke="black" cx="436.392" cy="-568.846" rx="27.6545" ry="27.6545"/>
<text text-anchor="middle" x="436.392" y="-566.646" font-family="Times,serif" font-size="9.00">22874</text>
</g>
<!-- 2617&#45;&gt;22874 -->
<g id="edge36" class="edge"><title>2617&#45;&gt;22874</title>
<path fill="none" stroke="green" stroke-width="0.517842" d="M438.588,-635.109C438.295,-626.397 437.956,-616.33 437.634,-606.751"/>
<polygon fill="green" stroke="green" stroke-width="0.517842" points="441.128,-606.512 437.294,-596.635 434.132,-606.747 441.128,-606.512"/>
</g>
<!-- 2617&#45;&gt;1791 -->
<g id="edge31" class="edge"><title>2617&#45;&gt;1791</title>
<path fill="none" stroke="green" stroke-width="0.158688" d="M423.69,-640.677C414.653,-628.887 404.167,-612.76 399.392,-596.423 392.515,-572.895 393.958,-565.172 399.392,-541.269 401.968,-529.936 406.863,-518.258 411.963,-508.104"/>
<polygon fill="green" stroke="green" stroke-width="0.158688" points="415.059,-509.738 416.644,-499.262 408.872,-506.463 415.059,-509.738"/>
</g>
<!-- 22207 -->
<g id="node28" class="node"><title>22207</title>
<ellipse fill="white" stroke="black" cx="509.392" cy="-568.846" rx="27.6545" ry="27.6545"/>
<text text-anchor="middle" x="509.392" y="-566.646" font-family="Times,serif" font-size="9.00">22207</text>
</g>
<!-- 20928 -->
<g id="node29" class="node"><title>20928</title>
<ellipse fill="white" stroke="black" cx="754.392" cy="-660.001" rx="27.6545" ry="27.6545"/>
<text text-anchor="middle" x="754.392" y="-657.801" font-family="Times,serif" font-size="9.00">20928</text>
</g>
<!-- 20928&#45;&gt;1739 -->
<g id="edge11" class="edge"><title>20928&#45;&gt;1739</title>
<path fill="none" stroke="red" stroke-width="0.1857" d="M741.797,-635.109C736.146,-624.39 729.415,-611.621 723.411,-600.232"/>
<polygon fill="red" stroke="red" stroke-width="0.1857" points="726.338,-598.279 718.578,-591.065 720.145,-601.543 726.338,-598.279"/>
</g>
<!-- 1730 -->
<g id="node30" class="node"><title>1730</title>
<ellipse fill="white" stroke="black" cx="624.392" cy="-1100.22" rx="25" ry="25"/>
<text text-anchor="middle" x="624.392" y="-1098.02" font-family="Times,serif" font-size="9.00">1730</text>
</g>
<!-- 1865&#45;&gt;ux -->
<g id="edge21" class="edge"><title>1865&#45;&gt;ux</title>
<path fill="none" stroke="green" stroke-width="0.158825" d="M801.832,-94.445C794.072,-81.8058 784.083,-65.5355 775.974,-52.328"/>
<polygon fill="green" stroke="green" stroke-width="0.158825" points="778.926,-50.4468 770.711,-43.7561 772.961,-54.1094 778.926,-50.4468"/>
</g>
<!-- 19927&#45;&gt;19497 -->
<g id="edge54" class="edge"><title>19927&#45;&gt;19497</title>
<path fill="none" stroke="red" stroke-width="0.279669" d="M202.794,-450.425C200.997,-441.991 198.974,-432.498 197.055,-423.494"/>
<polygon fill="red" stroke="red" stroke-width="0.279669" points="200.458,-422.668 194.95,-413.617 193.611,-424.127 200.458,-422.668"/>
</g>
<!-- 19934 -->
<g id="node36" class="node"><title>19934</title>
<ellipse fill="white" stroke="black" cx="526.392" cy="-204.229" rx="27.6545" ry="27.6545"/>
<text text-anchor="middle" x="526.392" y="-202.029" font-family="Times,serif" font-size="9.00">19934</text>
</g>
<!-- 19934&#45;&gt;wz -->
<g id="edge40" class="edge"><title>19934&#45;&gt;wz</title>
<path fill="none" stroke="red" stroke-width="0.272031" d="M526.392,-176.388C526.392,-166.574 526.392,-155.44 526.392,-145.48"/>
<polygon fill="red" stroke="red" stroke-width="0.272031" points="529.892,-145.252 526.392,-135.252 522.892,-145.252 529.892,-145.252"/>
</g>
<!-- 2655&#45;&gt;2180 -->
<g id="edge32" class="edge"><title>2655&#45;&gt;2180</title>
<path fill="none" stroke="red" stroke-width="0.686102" d="M776.392,-270.492C776.392,-260.898 776.392,-249.662 776.392,-239.242"/>
<polygon fill="red" stroke="red" stroke-width="0.686102" points="779.892,-239.187 776.392,-229.187 772.892,-239.187 779.892,-239.187"/>
</g>
<!-- 99&#45;&gt;ux -->
<g id="edge26" class="edge"><title>99&#45;&gt;ux</title>
<path fill="none" stroke="green" stroke-width="0.138792" d="M657.099,-553.77C678.256,-524.504 723.392,-454.253 723.392,-387.538 723.392,-387.538 723.392,-387.538 723.392,-203.229 723.392,-149.516 740.765,-88.5926 752.017,-54.7653"/>
<polygon fill="green" stroke="green" stroke-width="0.138792" points="755.373,-55.7696 755.287,-45.1751 748.747,-53.5107 755.373,-55.7696"/>
</g>
<!-- 99&#45;&gt;1791 -->
<g id="edge63" class="edge"><title>99&#45;&gt;1791</title>
<path fill="none" stroke="green" stroke-width="0.101423" d="M635.185,-554.133C630.715,-549.443 625.241,-544.556 619.392,-541.269 562.26,-509.157 537.24,-529.617 476.392,-505.269 470.452,-502.892 464.339,-499.894 458.567,-496.774"/>
<polygon fill="green" stroke="green" stroke-width="0.101423" points="460.279,-493.721 449.851,-491.844 456.832,-499.814 460.279,-493.721"/>
</g>
<!-- 21479&#45;&gt;uy -->
<g id="edge39" class="edge"><title>21479&#45;&gt;uy</title>
<path fill="none" stroke="red" stroke-width="0.118358" d="M341.408,-459.502C360.377,-443.987 388.182,-421.245 407.436,-405.496"/>
<polygon fill="red" stroke="red" stroke-width="0.118358" points="409.841,-408.051 415.365,-399.01 405.409,-402.633 409.841,-408.051"/>
</g>
<!-- 6898&#45;&gt;22533 -->
<g id="edge33" class="edge"><title>6898&#45;&gt;22533</title>
<path fill="none" stroke="green" stroke-width="0.314633" d="M607.527,-910.425C612.196,-900.274 617.837,-888.005 623.014,-876.749"/>
<polygon fill="green" stroke="green" stroke-width="0.314633" points="626.223,-878.149 627.221,-867.601 619.863,-875.224 626.223,-878.149"/>
</g>
<!-- 6898&#45;&gt;21672 -->
<g id="edge37" class="edge"><title>6898&#45;&gt;21672</title>
<path fill="none" stroke="green" stroke-width="0.344075" d="M596.408,-908.671C593.855,-846.948 587.004,-681.331 583.926,-606.931"/>
<polygon fill="green" stroke="green" stroke-width="0.344075" points="587.411,-606.486 583.5,-596.639 580.417,-606.775 587.411,-606.486"/>
</g>
<!-- 7540&#45;&gt;22307 -->
<g id="edge15" class="edge"><title>7540&#45;&gt;22307</title>
<path fill="none" stroke="green" stroke-width="0.403568" d="M264.392,-817.418C264.392,-808.705 264.392,-798.639 264.392,-789.06"/>
<polygon fill="green" stroke="green" stroke-width="0.403568" points="267.892,-788.944 264.392,-778.944 260.892,-788.944 267.892,-788.944"/>
</g>
<!-- 510&#45;&gt;22207 -->
<g id="edge4" class="edge"><title>510&#45;&gt;22207</title>
<path fill="none" stroke="green" stroke-width="0.283605" d="M506.3,-638.77C506.726,-629.27 507.248,-617.643 507.74,-606.663"/>
<polygon fill="green" stroke="green" stroke-width="0.283605" points="511.248,-606.573 508.2,-596.426 504.255,-606.259 511.248,-606.573"/>
</g>
<!-- 510&#45;&gt;22874 -->
<g id="edge9" class="edge"><title>510&#45;&gt;22874</title>
<path fill="none" stroke="green" stroke-width="0.652267" d="M492.736,-642.648C483.37,-630.546 470.354,-613.728 459.192,-599.306"/>
<polygon fill="green" stroke="green" stroke-width="0.652267" points="461.764,-596.91 452.875,-591.144 456.228,-601.195 461.764,-596.91"/>
</g>
<!-- 510&#45;&gt;99 -->
<g id="edge16" class="edge"><title>510&#45;&gt;99</title>
<path fill="none" stroke="red" stroke-width="0.539753" d="M524.506,-650.508C547.96,-639.65 588.42,-619.472 619.392,-596.423 621.866,-594.583 624.338,-592.525 626.728,-590.392"/>
<polygon fill="red" stroke="red" stroke-width="0.539753" points="629.599,-592.49 634.411,-583.051 624.763,-587.428 629.599,-592.49"/>
</g>
<!-- 510&#45;&gt;510 -->
<g id="edge24" class="edge"><title>510&#45;&gt;510</title>
<path fill="none" stroke="red" stroke-width="0.539603" d="M521.096,-674.882C532.804,-680.078 544.605,-675.118 544.605,-660.001 544.605,-649.253 538.641,-643.639 530.985,-643.159"/>
<polygon fill="red" stroke="red" stroke-width="0.539603" points="530.224,-639.742 521.096,-645.12 531.585,-646.608 530.224,-639.742"/>
</g>
<!-- 1791&#45;&gt;uy -->
<g id="edge28" class="edge"><title>1791&#45;&gt;uy</title>
<path fill="none" stroke="green" stroke-width="0.171189" d="M429.392,-452.8C429.392,-441.151 429.392,-427.081 429.392,-414.992"/>
<polygon fill="green" stroke="green" stroke-width="0.171189" points="432.892,-414.989 429.392,-404.989 425.892,-414.989 432.892,-414.989"/>
</g>
</g>
</svg>
